<?xml version="1.0" encoding="utf-8"?>
<svg viewBox="1197.313 11241.434 18705.151 4689.472" width="18705.151" height="4689.472" fill-rule="evenodd" stroke-width="28.222" stroke-linejoin="round" xmlns="http://www.w3.org/2000/svg">
  <defs>
    <clipPath id="presentation_clip_path" clipPathUnits="userSpaceOnUse">
      <rect x="0" y="0" width="21000" height="29700"/>
    </clipPath>
  </defs>
  <g class="SlideGroup">
    <g>
      <g id="container-id1">
        <g id="id1" class="Slide" clip-path="url(#presentation_clip_path)">
          <g class="Page">
            <g class="TextShape">
              <g id="id3">
                <rect class="BoundingBox" stroke="none" fill="none" x="17726" y="-17716" width="27040" height="6073"/>
                <text class="SVGTextShape" style="white-space: pre;"><tspan class="TextParagraph" font-family="Microsoft YaHei UI" font-size="4780px" font-weight="400"><tspan class="TextPosition" x="17726" y="-12860"><tspan fill="rgb(27,25,24)" stroke="none" style="white-space: pre">Digna</tspan></tspan></tspan></text>
              </g>
            </g>
            <g class="com.sun.star.drawing.ClosedBezierShape">
              <g id="id4">
                <rect class="BoundingBox" stroke="none" fill="none" x="25919" y="557" width="13943" height="5431"/>
                <path fill="rgb(27,25,24)" stroke="none" d="M 29330,2115 C 29330,2313 29256,2504 29109,2689 28959,2876 28771,3046 28546,3198 28432,3275 28316,3346 28198,3412 28081,3478 27961,3539 27838,3593 27715,3648 27600,3696 27491,3736 27383,3778 27282,3813 27186,3841 27071,3877 26931,3933 26766,4009 26753,4015 26738,4023 26720,4033 26701,4043 26678,4055 26652,4070 26600,4099 26559,4117 26528,4123 26389,4154 26300,4170 26259,4170 26185,4170 26121,4148 26068,4102 26015,4057 25980,3997 25962,3922 25947,3857 25936,3803 25929,3759 25922,3716 25919,3682 25919,3658 25919,3637 25922,3605 25932,3563 25943,3520 25949,3484 25949,3453 25949,3430 25950,3403 25954,3372 25957,3342 25961,3308 25967,3269 25974,3229 25978,3198 25982,3174 25986,3150 25989,3131 25990,3119 25997,3080 26009,3006 26025,2899 26043,2790 26064,2647 26091,2467 26107,2373 26124,2272 26145,2166 26165,2060 26189,1948 26215,1826 26218,1816 26221,1802 26225,1785 26229,1767 26234,1747 26241,1723 26253,1677 26262,1637 26268,1605 26275,1572 26278,1541 26278,1511 26278,1480 26268,1454 26250,1432 26231,1410 26205,1388 26170,1364 26138,1339 26115,1318 26102,1303 26088,1286 26082,1261 26082,1228 26082,1166 26108,1104 26161,1042 26216,978 26272,946 26331,946 26403,946 26499,953 26619,967 26737,981 26819,988 26866,988 26946,988 27066,984 27228,974 27388,965 27509,961 27588,961 27814,961 28026,978 28225,1014 28425,1050 28605,1114 28765,1205 28809,1230 28873,1275 28956,1338 29041,1397 29124,1515 29207,1689 29289,1863 29330,2006 29330,2115 Z M 29330,2115 L 29330,2115 Z M 28924,2115 C 28924,1897 28845,1731 28685,1617 28528,1503 28342,1428 28125,1392 28017,1375 27908,1362 27797,1353 27686,1343 27572,1338 27455,1338 27419,1338 27382,1340 27343,1342 27304,1344 27262,1347 27219,1350 27133,1358 27052,1366 26976,1374 26900,1381 26818,1387 26728,1390 26707,1492 26685,1600 26663,1711 26642,1822 26620,1940 26598,2061 26593,2090 26586,2129 26577,2176 26567,2224 26555,2283 26542,2353 26529,2423 26517,2487 26505,2545 26494,2602 26484,2656 26477,2706 26469,2755 26461,2807 26453,2861 26445,2915 26438,2970 26432,3025 26425,3080 26421,3135 26417,3188 26413,3241 26411,3292 26411,3339 26411,3452 26429,3545 26465,3617 26582,3601 26701,3575 26822,3540 26883,3522 26946,3503 27012,3481 27078,3459 27148,3435 27219,3409 27292,3383 27357,3359 27412,3339 27467,3320 27515,3304 27555,3292 28033,3135 28346,2987 28492,2851 28515,2828 28542,2801 28571,2766 28601,2732 28634,2691 28669,2643 28741,2546 28802,2449 28851,2351 28900,2255 28924,2177 28924,2115 Z M 28924,2115 L 28924,2115 Z M 30285,743 C 30285,844 30258,930 30206,1002 30154,1073 30079,1110 29979,1110 29917,1110 29847,1101 29771,1082 29697,1063 29660,1032 29660,990 29660,914 29683,841 29730,773 29778,703 29834,645 29902,603 29954,570 29990,557 30007,557 30096,557 30164,569 30213,592 30261,616 30285,667 30285,743 Z M 30285,743 L 30285,743 Z M 30699,3850 C 30700,4061 30298,4200 30075,4200 29887,4200 29739,4138 29636,4012 29531,3884 29461,3729 29424,3548 29386,3370 29367,3185 29367,2995 29367,2916 29377,2792 29396,2624 29405,2540 29414,2467 29424,2407 29433,2346 29443,2297 29454,2259 29475,2186 29522,2123 29592,2068 29664,2011 29738,1982 29816,1982 29858,1982 29879,2021 29879,2101 29879,2153 29874,2214 29864,2281 29853,2348 29843,2414 29833,2479 29812,2602 29797,2712 29788,2809 29779,2907 29774,2991 29774,3063 29774,3220 29796,3379 29839,3540 29883,3703 29962,3784 30075,3784 30494,3784 30699,3362 30699,3850 Z M 30699,3850 L 30699,3850 Z M 32760,2679 C 32748,2787 32737,2906 32729,3037 32721,3167 32711,3313 32699,3473 32694,3532 32688,3599 32680,3674 32672,3749 32664,3826 32655,3906 32638,4054 32621,4202 32598,4350 32585,4440 32524,4895 32503,4992 32481,5089 32453,5185 32420,5280 32388,5375 32348,5465 32301,5551 32253,5637 32196,5712 32131,5776 32066,5841 31990,5892 31904,5930 31817,5968 31719,5987 31608,5987 31538,5987 31467,5979 31395,5962 31324,5945 31253,5922 31184,5893 31115,5864 31048,5830 30983,5790 30919,5751 30859,5708 30805,5663 30744,5613 30691,5562 30644,5510 30597,5458 30558,5404 30526,5350 30496,5297 30480,5245 30480,5193 30480,5146 30495,5121 30526,5121 30538,5121 30549,5127 30561,5138 30567,5143 30576,5149 30584,5158 30592,5168 30601,5177 30609,5185 30616,5194 30623,5202 30629,5209 30635,5216 30640,5220 30641,5221 30942,5499 31262,5637 31603,5637 31717,5637 31810,5611 31882,5559 31955,5507 32013,5439 32055,5356 32098,5272 32131,5180 32153,5078 32214,4798 32225,4717 32278,4228 32284,4165 32291,4101 32297,4033 32303,3965 32310,3894 32316,3819 32322,3745 32329,3663 32337,3576 32273,3645 32193,3717 32095,3795 31998,3872 31893,3943 31782,4008 31671,4073 31559,4128 31446,4171 31333,4214 31230,4235 31134,4235 31094,4235 31057,4225 31022,4207 30988,4189 30958,4162 30933,4126 30908,4091 30889,4048 30874,3998 30859,3947 30852,3891 30852,3828 30852,3538 31030,3176 31179,2935 31238,2840 31295,2753 31352,2677 31407,2602 31476,2524 31555,2443 31634,2361 31719,2286 31811,2218 31902,2150 31996,2095 32094,2051 32192,2008 32288,1986 32381,1986 32464,1986 32541,2004 32613,2041 32684,2078 32739,2132 32778,2205 32788,2223 32793,2247 32794,2281 32796,2314 32796,2353 32793,2396 32790,2439 32785,2484 32778,2534 32772,2582 32766,2631 32760,2679 Z M 32760,2679 L 32760,2679 Z M 32377,3104 C 32383,3058 32390,3002 32396,2935 32402,2869 32410,2787 32419,2689 32424,2637 32428,2586 32434,2534 32440,2483 32437,2441 32428,2408 32415,2364 32392,2335 32356,2322 32320,2310 32262,2303 32181,2303 32106,2350 32031,2408 31957,2476 31883,2545 31813,2619 31745,2698 31677,2777 31615,2860 31557,2945 31500,3030 31449,3112 31405,3194 31357,3282 31319,3371 31291,3458 31263,3546 31249,3621 31249,3682 31249,3708 31253,3729 31264,3747 31274,3764 31287,3777 31304,3788 31320,3798 31339,3805 31360,3808 31381,3812 31402,3815 31424,3815 31478,3815 31537,3803 31600,3780 31663,3756 31726,3727 31788,3693 31850,3659 31909,3622 31965,3584 32022,3546 32070,3511 32110,3481 32128,3468 32151,3449 32178,3422 32206,3396 32234,3365 32262,3330 32290,3295 32315,3258 32337,3219 32359,3180 32372,3142 32377,3104 Z M 32377,3104 L 32377,3104 Z M 35829,4021 C 35789,4066 35727,4081 35676,4105 35625,4128 35571,4147 35515,4161 35459,4175 35397,4182 35330,4182 35201,4182 35096,4149 35015,4084 34975,4051 34940,4009 34909,3956 34879,3904 34852,3846 34830,3783 34807,3719 34788,3651 34771,3579 34755,3508 34741,3437 34730,3367 34716,3280 34703,3201 34691,3132 34679,3063 34663,3005 34647,2957 34631,2910 34611,2873 34588,2848 34564,2822 34534,2809 34496,2809 34467,2809 34439,2812 34413,2818 34386,2824 34358,2837 34330,2856 34301,2874 34269,2901 34235,2935 34201,2970 34161,3014 34115,3071 34069,3127 34016,3195 33957,3276 33898,3357 33829,3454 33749,3566 33711,3620 33665,3680 33612,3745 33559,3810 33505,3873 33450,3933 33394,3992 33340,4044 33287,4089 33234,4134 33187,4163 33147,4175 33010,4145 32941,3975 32941,3664 32941,3581 32950,3456 32969,3288 32978,3211 32989,3131 33002,3048 33014,2965 33030,2882 33049,2798 33067,2715 33089,2634 33113,2556 33138,2477 33166,2404 33199,2337 33214,2306 33230,2281 33247,2263 33264,2245 33283,2232 33300,2224 33317,2216 33337,2210 33356,2208 33376,2205 33396,2204 33415,2204 33440,2204 33462,2221 33482,2255 33501,2290 33511,2337 33511,2398 33511,2435 33507,2471 33502,2503 33496,2536 33487,2569 33476,2604 33465,2638 33453,2675 33441,2714 33429,2754 33415,2800 33403,2851 33394,2893 33384,2940 33372,2991 33361,3042 33350,3095 33340,3147 33329,3201 33321,3253 33314,3303 33307,3354 33303,3399 33303,3439 33303,3468 33308,3496 33317,3526 33361,3521 33433,3456 33533,3330 33583,3266 33640,3196 33702,3119 33763,3043 33830,2959 33901,2868 33954,2799 34007,2735 34059,2675 34111,2616 34165,2565 34221,2521 34277,2477 34337,2441 34400,2416 34463,2390 34532,2377 34609,2377 34690,2377 34757,2394 34811,2429 34865,2464 34908,2513 34940,2574 34973,2636 34998,2710 35016,2795 35034,2880 35049,2974 35060,3077 35069,3165 35078,3251 35086,3337 35095,3422 35112,3499 35136,3567 35161,3634 35197,3690 35244,3732 35291,3773 35358,3795 35445,3795 35512,3795 35601,3806 35655,3748 35849,3540 36170,3637 35829,4021 Z M 35829,4021 L 35829,4021 Z M 39861,2644 C 39861,2662 39858,2684 39854,2710 39849,2736 39842,2761 39834,2788 39825,2815 39816,2840 39806,2864 39796,2888 39785,2907 39775,2921 39765,2934 39751,2950 39733,2971 39715,2992 39696,3016 39674,3041 39652,3065 39628,3092 39602,3119 39577,3146 39549,3172 39522,3197 39425,3286 39331,3372 39238,3455 39146,3538 39050,3612 38952,3676 38854,3740 38752,3791 38645,3829 38538,3867 38423,3884 38298,3883 38241,3883 38183,3873 38125,3852 38066,3831 38011,3801 37960,3762 37908,3723 37864,3677 37826,3622 37789,3567 37763,3508 37748,3442 37702,3489 37655,3538 37605,3588 37555,3639 37503,3690 37449,3741 37396,3792 37340,3842 37283,3890 37225,3939 37166,3984 37105,4023 37071,4046 37030,4069 36982,4094 36935,4118 36885,4142 36833,4163 36781,4184 36729,4201 36676,4214 36624,4227 36577,4234 36535,4234 36471,4234 36416,4214 36371,4174 36325,4134 36286,4086 36256,4028 36226,3971 36203,3909 36188,3844 36174,3779 36166,3720 36166,3669 36166,3566 36181,3461 36211,3353 36240,3246 36278,3141 36326,3039 36374,2938 36427,2841 36485,2749 36543,2656 36600,2575 36657,2503 36716,2428 36786,2354 36867,2280 36948,2206 37032,2140 37119,2082 37206,2023 37292,1976 37376,1940 37460,1904 37535,1886 37600,1886 37633,1886 37668,1886 37704,1886 37740,1886 37777,1888 37813,1892 37849,1896 37884,1902 37917,1910 37952,1919 37984,1932 38011,1950 38025,1959 38041,1977 38060,2003 38079,2030 38096,2059 38113,2092 38129,2125 38143,2157 38153,2190 38164,2223 38170,2249 38170,2267 38170,2319 38156,2387 38135,2473 38108,2580 38088,2678 38066,2766 38045,2854 38035,2945 38035,3038 38035,3091 38043,3145 38060,3201 38077,3256 38102,3306 38134,3351 38166,3396 38204,3434 38251,3462 38297,3491 38349,3505 38406,3505 38501,3505 38598,3485 38698,3445 38797,3406 38898,3351 39000,3282 39102,3213 39204,3133 39305,3041 39406,2950 39507,2855 39604,2751 39612,2742 39626,2726 39645,2703 39664,2680 39685,2658 39705,2636 39727,2612 39747,2593 39768,2574 39787,2557 39803,2548 39811,2548 39845,2548 39861,2580 39861,2644 Z M 39861,2644 L 39861,2644 Z M 37783,2450 C 37783,2424 37781,2391 37778,2352 37775,2313 37764,2281 37748,2256 37730,2231 37709,2219 37685,2219 37659,2220 37634,2221 37610,2221 37555,2221 37503,2229 37452,2247 37402,2264 37352,2287 37304,2318 37255,2348 37209,2383 37165,2423 37120,2463 37078,2504 37035,2548 36999,2584 36962,2628 36922,2681 36882,2734 36843,2792 36805,2855 36767,2918 36730,2984 36694,3053 36658,3123 36627,3191 36600,3259 36574,3327 36553,3392 36537,3455 36522,3518 36514,3575 36514,3626 36514,3642 36516,3663 36520,3689 36524,3714 36531,3739 36539,3764 36547,3787 36559,3808 36573,3825 36588,3842 36607,3851 36628,3851 36700,3851 36790,3829 36897,3783 37044,3721 37176,3636 37296,3528 37415,3419 37519,3296 37600,3153 37724,2934 37783,2699 37783,2450 Z"/>
              </g>
            </g>
            <g class="TextShape">
              <g id="id5">
                <rect class="BoundingBox" stroke="none" fill="none" x="97641" y="-7851" width="27617" height="5565"/>
                <text class="SVGTextShape" style="white-space: pre;"><tspan class="TextParagraph" font-family="News706 BT" font-size="4780px" font-weight="400"><tspan class="TextPosition" x="97641" y="-3414"><tspan fill="rgb(27,25,24)" stroke="none" style="white-space: pre">Digna</tspan></tspan></tspan></text>
              </g>
            </g>
            <g class="TextShape">
              <g id="id6">
                <rect class="BoundingBox" stroke="none" fill="none" x="96179" y="-15830" width="22574" height="5552"/>
                <text class="SVGTextShape" style="white-space: pre;"><tspan class="TextParagraph" font-family="Trebuchet MS, sans-serif" font-size="4780px" font-weight="400"><tspan class="TextPosition" x="96179" y="-11343"><tspan fill="rgb(27,25,24)" stroke="none" style="white-space: pre">Digna</tspan></tspan></tspan></text>
              </g>
            </g>
            <g class="TextShape">
              <g id="id7">
                <rect class="BoundingBox" stroke="none" fill="none" x="79305" y="-7863" width="27614" height="5565"/>
                <text class="SVGTextShape" style="white-space: pre;"><tspan class="TextParagraph" font-family="OCR-A BT" font-size="4780px" font-weight="400"><tspan class="TextPosition" x="79305" y="-3426"><tspan fill="rgb(27,25,24)" stroke="none" style="white-space: pre">Digna</tspan></tspan></tspan></text>
              </g>
            </g>
            <g class="TextShape">
              <g id="id8">
                <rect class="BoundingBox" stroke="none" fill="none" x="97831" y="-2312" width="27997" height="5565"/>
                <text class="SVGTextShape" style="white-space: pre;"><tspan class="TextParagraph" font-family="Schadow BT" font-size="4780px" font-weight="400"><tspan class="TextPosition" x="97831" y="2125"><tspan fill="rgb(27,25,24)" stroke="none" style="white-space: pre">Digna</tspan></tspan></tspan></text>
              </g>
            </g>
            <g class="com.sun.star.drawing.PolyPolygonShape">
              <g id="id9">
                <rect class="BoundingBox" stroke="none" fill="none" x="32183" y="26209" width="21522" height="21522"/>
                <path fill="rgb(255,255,255)" stroke="none" d="M 32193,26219 L 32193,47720 53694,47720 53694,26219 32193,26219 Z"/>
                <path fill="none" stroke="rgb(27,25,24)" stroke-width="20" stroke-linejoin="miter" d="M 32193,26219 L 32193,47720 53694,47720 53694,26219 32193,26219 Z"/>
              </g>
            </g>
            <g class="TextShape">
              <g id="id10">
                <rect class="BoundingBox" stroke="none" fill="none" x="33771" y="35076" width="23311" height="5738"/>
                <text class="SVGTextShape" style="white-space: pre;"><tspan class="TextParagraph" font-family="Trebuchet MS, sans-serif" font-size="4939px" font-weight="400"><tspan class="TextPosition" x="33771" y="39716"><tspan fill="rgb(255,236,0)" stroke="none" style="white-space: pre">Digna</tspan></tspan></tspan></text>
              </g>
            </g>
            <g class="TextShape">
              <g id="id11">
                <rect class="BoundingBox" stroke="none" fill="none" x="45272" y="35125" width="14545" height="5738"/>
                <text class="SVGTextShape" style="white-space: pre;"><tspan class="TextParagraph" font-family="Trebuchet MS, sans-serif" font-size="4939px" font-weight="400"><tspan class="TextPosition" x="45421" y="39765"><tspan fill="rgb(255,236,0)" stroke="none" style="white-space: pre">Tec</tspan></tspan></tspan></text>
              </g>
            </g>
            <g class="com.sun.star.drawing.PolyPolygonShape">
              <g id="id12">
                <rect class="BoundingBox" stroke="none" fill="none" x="64949" y="28834" width="21522" height="21522"/>
                <path fill="rgb(255,236,0)" stroke="none" d="M 64959,28844 L 64959,50345 86460,50345 86460,28844 64959,28844 Z"/>
                <path fill="none" stroke="rgb(27,25,24)" stroke-width="20" stroke-linejoin="miter" d="M 64959,28844 L 64959,50345 86460,50345 86460,28844 64959,28844 Z"/>
              </g>
            </g>
            <g class="TextShape">
              <g id="id13">
                <rect class="BoundingBox" stroke="none" fill="none" x="66050" y="37277" width="38323" height="5738"/>
                <text class="SVGTextShape" style="white-space: pre;"><tspan class="TextParagraph" font-family="Trebuchet MS, sans-serif" font-size="4939px" font-weight="400"><tspan class="TextPosition" x="66199" y="41917"><tspan fill="rgb(0,139,208)" stroke="none" style="white-space: pre">DignaTec</tspan></tspan></tspan></text>
              </g>
            </g>
            <g class="com.sun.star.drawing.ClosedBezierShape">
              <g id="id14">
                <rect class="BoundingBox" stroke="none" fill="none" x="-46124" y="4129" width="19717" height="20360"/>
                <path fill="rgb(255,236,0)" stroke="none" d="M -46124,4604 C -42169,7460 -40613,10607 -39608,13760 -38166,18288 -34362,21490 -27633,24488 -26905,24094 -26408,23322 -26408,22440 L -26408,6457 C -26408,5176 -27456,4129 -28736,4129 L -44719,4129 C -45246,4129 -45733,4306 -46124,4604 Z"/>
              </g>
            </g>
            <g class="com.sun.star.drawing.ClosedBezierShape">
              <g id="id15">
                <rect class="BoundingBox" stroke="none" fill="none" x="-47047" y="4408" width="19717" height="20360"/>
                <path fill="rgb(27,25,24)" stroke="none" d="M -27331,24292 C -31286,21436 -32843,18289 -33847,15136 -35290,10608 -39093,7406 -45822,4408 -46550,4802 -47047,5574 -47047,6456 L -47047,22439 C -47047,23720 -46000,24767 -44719,24767 L -28736,24767 C -28209,24767 -27722,24590 -27331,24292 Z"/>
              </g>
            </g>
            <g class="com.sun.star.drawing.ClosedBezierShape">
              <g id="id16">
                <rect class="BoundingBox" stroke="none" fill="none" x="-46014" y="12195" width="11801" height="4575"/>
                <path fill="rgb(27,25,24)" stroke="none" d="M -45168,15707 L -45913,15707 -45913,12348 C -45438,12331 -45139,12323 -45017,12323 -44528,12323 -44140,12466 -43854,12752 -43567,13039 -43424,13420 -43424,13894 -43424,15102 -44006,15707 -45168,15707 Z M -45168,15707 L -45168,15707 Z M -45317,12870 L -45317,15161 C -45221,15170 -45117,15175 -45005,15175 -44705,15175 -44469,15066 -44299,14848 -44129,14629 -44044,14324 -44044,13931 -44044,13212 -44378,12853 -45045,12853 -45109,12853 -45200,12859 -45317,12870 Z M -45317,12870 L -45317,12870 Z M -42481,12295 C -42389,12295 -42311,12327 -42246,12392 -42181,12457 -42148,12536 -42148,12628 -42148,12720 -42181,12799 -42246,12864 -42311,12929 -42389,12961 -42481,12961 -42573,12961 -42652,12929 -42717,12864 -42782,12799 -42815,12720 -42815,12628 -42815,12536 -42782,12457 -42717,12392 -42652,12327 -42573,12295 -42481,12295 Z M -42481,12295 L -42481,12295 Z M -42777,15707 L -42777,13719 -43093,13719 -43093,13248 -42195,13248 -42195,15707 -42777,15707 Z M -42777,15707 L -42777,15707 Z M -41709,16337 L -41347,15890 C -41147,16075 -40923,16167 -40677,16167 -40512,16167 -40375,16142 -40268,16093 -40161,16043 -40108,15975 -40108,15889 -40108,15743 -40226,15669 -40463,15669 -40528,15669 -40624,15677 -40750,15692 -40877,15708 -40973,15716 -41038,15716 -41432,15716 -41630,15573 -41630,15290 -41630,15209 -41597,15129 -41532,15051 -41466,14973 -41390,14916 -41303,14879 -41583,14698 -41724,14441 -41724,14109 -41724,13847 -41627,13630 -41434,13459 -41240,13286 -41003,13201 -40721,13201 -40501,13201 -40316,13243 -40167,13325 L -39942,13065 -39544,13424 -39818,13622 C -39723,13766 -39676,13935 -39676,14130 -39676,14408 -39761,14631 -39932,14797 -40103,14964 -40318,15048 -40579,15048 -40620,15048 -40675,15044 -40744,15037 L -40839,15024 C -40849,15024 -40890,15041 -40960,15074 -41031,15107 -41066,15141 -41066,15176 -41066,15238 -41013,15269 -40908,15269 -40860,15269 -40780,15257 -40669,15234 -40557,15210 -40462,15198 -40382,15198 -39824,15198 -39544,15423 -39544,15873 -39544,16121 -39656,16316 -39879,16457 -40103,16599 -40372,16669 -40688,16669 -41064,16669 -41405,16558 -41709,16337 Z M -41709,16337 L -41709,16337 Z M -41136,14110 C -41136,14254 -41096,14370 -41015,14457 -40934,14544 -40826,14588 -40689,14588 -40552,14588 -40447,14545 -40373,14460 -40300,14376 -40263,14259 -40263,14110 -40263,13988 -40303,13884 -40382,13799 -40461,13714 -40563,13672 -40689,13672 -40822,13672 -40929,13712 -41012,13795 -41095,13876 -41136,13982 -41136,14110 Z M -41136,14110 L -41136,14110 Z M -37590,15707 L -37590,14285 C -37590,14075 -37630,13922 -37711,13826 -37791,13730 -37921,13681 -38103,13681 -38187,13681 -38277,13705 -38372,13752 -38468,13799 -38542,13859 -38595,13929 L -38595,15707 -39168,15707 -39168,13248 -38756,13248 -38651,13478 C -38495,13293 -38265,13201 -37961,13201 -37669,13201 -37439,13289 -37270,13465 -37101,13640 -37016,13885 -37016,14198 L -37016,15707 -37590,15707 Z M -37590,15707 L -37590,15707 Z M -35028,15461 C -35079,15546 -35170,15617 -35299,15672 -35428,15726 -35563,15754 -35704,15754 -35968,15754 -36176,15687 -36327,15554 -36478,15421 -36554,15234 -36554,14990 -36554,14705 -36448,14482 -36235,14321 -36022,14161 -35719,14080 -35327,14080 -35259,14080 -35180,14091 -35089,14113 -35089,13825 -35271,13681 -35636,13681 -35851,13681 -36032,13717 -36177,13789 L -36301,13342 C -36103,13248 -35868,13201 -35596,13201 -35222,13201 -34947,13286 -34772,13458 -34598,13629 -34511,13951 -34511,14427 L -34511,14952 C -34511,15280 -34445,15486 -34314,15569 -34361,15654 -34414,15705 -34472,15725 -34530,15744 -34596,15754 -34671,15754 -34754,15754 -34829,15723 -34895,15661 -34960,15600 -35005,15533 -35028,15461 Z M -35028,15461 L -35028,15461 Z M -35084,14545 C -35182,14527 -35255,14517 -35304,14517 -35756,14517 -35981,14667 -35981,14965 -35981,15187 -35854,15297 -35599,15297 -35255,15297 -35084,15123 -35084,14776 L -35084,14545 Z"/>
                <path fill="none" stroke="rgb(255,236,0)" stroke-width="200" stroke-linejoin="round" stroke-linecap="square" d="M -45168,15707 L -45913,15707 -45913,12348 C -45438,12331 -45139,12323 -45017,12323 -44528,12323 -44140,12466 -43854,12752 -43567,13039 -43424,13420 -43424,13894 -43424,15102 -44006,15707 -45168,15707 Z"/>
                <path fill="none" stroke="rgb(255,236,0)" stroke-width="200" stroke-linejoin="round" stroke-linecap="square" d="M -45317,12870 L -45317,15161 C -45221,15170 -45117,15175 -45005,15175 -44705,15175 -44469,15066 -44299,14848 -44129,14629 -44044,14324 -44044,13931 -44044,13212 -44378,12853 -45045,12853 -45109,12853 -45200,12859 -45317,12870 Z"/>
                <path fill="none" stroke="rgb(255,236,0)" stroke-width="200" stroke-linejoin="round" stroke-linecap="square" d="M -42481,12295 C -42389,12295 -42311,12327 -42246,12392 -42181,12457 -42148,12536 -42148,12628 -42148,12720 -42181,12799 -42246,12864 -42311,12929 -42389,12961 -42481,12961 -42573,12961 -42652,12929 -42717,12864 -42782,12799 -42815,12720 -42815,12628 -42815,12536 -42782,12457 -42717,12392 -42652,12327 -42573,12295 -42481,12295 Z"/>
                <path fill="none" stroke="rgb(255,236,0)" stroke-width="200" stroke-linejoin="round" stroke-linecap="square" d="M -42777,15707 L -42777,13719 -43093,13719 -43093,13248 -42195,13248 -42195,15707 -42777,15707 Z"/>
                <path fill="none" stroke="rgb(255,236,0)" stroke-width="200" stroke-linejoin="round" stroke-linecap="square" d="M -41709,16337 L -41347,15890 C -41147,16075 -40923,16167 -40677,16167 -40512,16167 -40375,16142 -40268,16093 -40161,16043 -40108,15975 -40108,15889 -40108,15743 -40226,15669 -40463,15669 -40528,15669 -40624,15677 -40750,15692 -40877,15708 -40973,15716 -41038,15716 -41432,15716 -41630,15573 -41630,15290 -41630,15209 -41597,15129 -41532,15051 -41466,14973 -41390,14916 -41303,14879 -41583,14698 -41724,14441 -41724,14109 -41724,13847 -41627,13630 -41434,13459 -41240,13286 -41003,13201 -40721,13201 -40501,13201 -40316,13243 -40167,13325 L -39942,13065 -39544,13424 -39818,13622 C -39723,13766 -39676,13935 -39676,14130 -39676,14408 -39761,14631 -39932,14797 -40103,14964 -40318,15048 -40579,15048 -40620,15048 -40675,15044 -40744,15037 L -40839,15024 C -40849,15024 -40890,15041 -40960,15074 -41031,15107 -41066,15141 -41066,15176 -41066,15238 -41013,15269 -40908,15269 -40860,15269 -40780,15257 -40669,15234 -40557,15210 -40462,15198 -40382,15198 -39824,15198 -39544,15423 -39544,15873 -39544,16121 -39656,16316 -39879,16457 -40103,16599 -40372,16669 -40688,16669 -41064,16669 -41405,16558 -41709,16337 Z"/>
                <path fill="none" stroke="rgb(255,236,0)" stroke-width="200" stroke-linejoin="round" stroke-linecap="square" d="M -41136,14110 C -41136,14254 -41096,14370 -41015,14457 -40934,14544 -40826,14588 -40689,14588 -40552,14588 -40447,14545 -40373,14460 -40300,14376 -40263,14259 -40263,14110 -40263,13988 -40303,13884 -40382,13799 -40461,13714 -40563,13672 -40689,13672 -40822,13672 -40929,13712 -41012,13795 -41095,13876 -41136,13982 -41136,14110 Z"/>
                <path fill="none" stroke="rgb(255,236,0)" stroke-width="200" stroke-linejoin="round" stroke-linecap="square" d="M -37590,15707 L -37590,14285 C -37590,14075 -37630,13922 -37711,13826 -37791,13730 -37921,13681 -38103,13681 -38187,13681 -38277,13705 -38372,13752 -38468,13799 -38542,13859 -38595,13929 L -38595,15707 -39168,15707 -39168,13248 -38756,13248 -38651,13478 C -38495,13293 -38265,13201 -37961,13201 -37669,13201 -37439,13289 -37270,13465 -37101,13640 -37016,13885 -37016,14198 L -37016,15707 -37590,15707 Z"/>
                <path fill="none" stroke="rgb(255,236,0)" stroke-width="200" stroke-linejoin="round" stroke-linecap="square" d="M -35028,15461 C -35079,15546 -35170,15617 -35299,15672 -35428,15726 -35563,15754 -35704,15754 -35968,15754 -36176,15687 -36327,15554 -36478,15421 -36554,15234 -36554,14990 -36554,14705 -36448,14482 -36235,14321 -36022,14161 -35719,14080 -35327,14080 -35259,14080 -35180,14091 -35089,14113 -35089,13825 -35271,13681 -35636,13681 -35851,13681 -36032,13717 -36177,13789 L -36301,13342 C -36103,13248 -35868,13201 -35596,13201 -35222,13201 -34947,13286 -34772,13458 -34598,13629 -34511,13951 -34511,14427 L -34511,14952 C -34511,15280 -34445,15486 -34314,15569 -34361,15654 -34414,15705 -34472,15725 -34530,15744 -34596,15754 -34671,15754 -34754,15754 -34829,15723 -34895,15661 -34960,15600 -35005,15533 -35028,15461 Z"/>
                <path fill="none" stroke="rgb(255,236,0)" stroke-width="200" stroke-linejoin="round" stroke-linecap="square" d="M -35084,14545 C -35182,14527 -35255,14517 -35304,14517 -35756,14517 -35981,14667 -35981,14965 -35981,15187 -35854,15297 -35599,15297 -35255,15297 -35084,15123 -35084,14776 L -35084,14545 Z"/>
              </g>
            </g>
            <g class="com.sun.star.drawing.ClosedBezierShape">
              <g id="id17">
                <rect class="BoundingBox" stroke="none" fill="none" x="-34490" y="12556" width="6956" height="3368"/>
                <path fill="rgb(255,236,0)" stroke="none" d="M -32841,13149 L -32841,15779 -33395,15779 -33395,13149 -34390,13149 -34390,12656 -31801,12656 -31801,13149 -32841,13149 Z M -32841,13149 L -32841,13149 Z M -29916,14800 L -31548,14800 C -31538,14982 -31475,15125 -31360,15226 -31245,15327 -31090,15378 -30894,15378 -30651,15378 -30466,15315 -30339,15190 L -30132,15596 C -30320,15747 -30600,15823 -30972,15823 -31321,15823 -31596,15721 -31799,15517 -32001,15313 -32103,15027 -32103,14661 -32103,14301 -31991,14009 -31769,13786 -31547,13562 -31280,13451 -30968,13451 -30637,13451 -30371,13550 -30171,13748 -29971,13946 -29871,14198 -29871,14503 -29871,14569 -29886,14668 -29916,14800 Z M -29916,14800 L -29916,14800 Z M -31526,14399 L -30408,14399 C -30445,14064 -30629,13897 -30960,13897 -31264,13897 -31453,14064 -31526,14399 Z M -31526,14399 L -31526,14399 Z M -27654,13674 L -27882,14071 C -28007,13955 -28174,13897 -28385,13897 -28586,13897 -28745,13963 -28863,14098 -28980,14233 -29038,14419 -29038,14657 -29038,15137 -28810,15378 -28354,15378 -28157,15378 -27983,15312 -27832,15181 L -27636,15600 C -27791,15697 -27927,15759 -28043,15784 -28158,15810 -28295,15823 -28452,15823 -28805,15823 -29083,15720 -29287,15514 -29491,15309 -29593,15022 -29593,14657 -29593,14297 -29481,14006 -29258,13784 -29035,13562 -28731,13451 -28346,13451 -28080,13451 -27850,13525 -27654,13674 Z"/>
                <path fill="none" stroke="rgb(20,23,16)" stroke-width="200" stroke-linejoin="round" stroke-linecap="square" d="M -32841,13149 L -32841,15779 -33395,15779 -33395,13149 -34390,13149 -34390,12656 -31801,12656 -31801,13149 -32841,13149 Z"/>
                <path fill="none" stroke="rgb(20,23,16)" stroke-width="200" stroke-linejoin="round" stroke-linecap="square" d="M -29916,14800 L -31548,14800 C -31538,14982 -31475,15125 -31360,15226 -31245,15327 -31090,15378 -30894,15378 -30651,15378 -30466,15315 -30339,15190 L -30132,15596 C -30320,15747 -30600,15823 -30972,15823 -31321,15823 -31596,15721 -31799,15517 -32001,15313 -32103,15027 -32103,14661 -32103,14301 -31991,14009 -31769,13786 -31547,13562 -31280,13451 -30968,13451 -30637,13451 -30371,13550 -30171,13748 -29971,13946 -29871,14198 -29871,14503 -29871,14569 -29886,14668 -29916,14800 Z"/>
                <path fill="none" stroke="rgb(20,23,16)" stroke-width="200" stroke-linejoin="round" stroke-linecap="square" d="M -31526,14399 L -30408,14399 C -30445,14064 -30629,13897 -30960,13897 -31264,13897 -31453,14064 -31526,14399 Z"/>
                <path fill="none" stroke="rgb(20,23,16)" stroke-width="200" stroke-linejoin="round" stroke-linecap="square" d="M -27654,13674 L -27882,14071 C -28007,13955 -28174,13897 -28385,13897 -28586,13897 -28745,13963 -28863,14098 -28980,14233 -29038,14419 -29038,14657 -29038,15137 -28810,15378 -28354,15378 -28157,15378 -27983,15312 -27832,15181 L -27636,15600 C -27791,15697 -27927,15759 -28043,15784 -28158,15810 -28295,15823 -28452,15823 -28805,15823 -29083,15720 -29287,15514 -29491,15309 -29593,15022 -29593,14657 -29593,14297 -29481,14006 -29258,13784 -29035,13562 -28731,13451 -28346,13451 -28080,13451 -27850,13525 -27654,13674 Z"/>
              </g>
            </g>
            <g class="com.sun.star.drawing.PolyPolygonShape">
              <g id="id18">
                <rect class="BoundingBox" stroke="none" fill="none" x="-44092" y="34686" width="21502" height="21502"/>
                <path fill="rgb(27,25,24)" stroke="none" d="M -22591,56187 L -44092,34686 -44092,56187 -22591,56187 Z"/>
              </g>
            </g>
            <g class="com.sun.star.drawing.PolyLineShape">
              <g id="id19">
                <rect class="BoundingBox" stroke="none" fill="none" x="-44102" y="34686" width="21512" height="21512"/>
                <path fill="none" stroke="rgb(27,25,24)" stroke-width="20" stroke-linejoin="miter" d="M -44092,34686 L -44092,56187 -22591,56187"/>
              </g>
            </g>
            <g class="Group">
              <g class="com.sun.star.drawing.PolyPolygonShape">
                <g id="id20">
                  <rect class="BoundingBox" stroke="none" fill="none" x="-39490" y="34686" width="16901" height="21502"/>
                  <path fill="rgb(255,236,0)" stroke="none" d="M -22590,56187 L -39490,34686 -22590,34686 -22590,56187 Z"/>
                </g>
              </g>
              <g class="com.sun.star.drawing.PolyLineShape">
                <g id="id21">
                  <rect class="BoundingBox" stroke="none" fill="none" x="-39490" y="34676" width="16911" height="21512"/>
                  <path fill="none" stroke="rgb(27,25,24)" stroke-width="20" stroke-linejoin="miter" d="M -39490,34686 L -22590,34686 -22590,56187"/>
                </g>
              </g>
            </g>
            <g class="com.sun.star.drawing.ClosedBezierShape">
              <g id="id22">
                <rect class="BoundingBox" stroke="none" fill="none" x="-42770" y="43557" width="11800" height="4575"/>
                <path fill="rgb(27,25,24)" stroke="none" d="M -41925,47068 L -42670,47068 -42670,43710 C -42195,43693 -41896,43685 -41774,43685 -41285,43685 -40897,43828 -40611,44114 -40324,44401 -40181,44781 -40181,45255 -40181,46464 -40763,47068 -41925,47068 Z M -41925,47068 L -41925,47068 Z M -42074,44232 L -42074,46523 C -41978,46532 -41874,46537 -41762,46537 -41462,46537 -41226,46428 -41056,46210 -40886,45991 -40801,45685 -40801,45292 -40801,44574 -41135,44215 -41802,44215 -41866,44215 -41957,44221 -42074,44232 Z M -42074,44232 L -42074,44232 Z M -39238,43657 C -39146,43657 -39068,43689 -39003,43754 -38938,43819 -38905,43898 -38905,43990 -38905,44082 -38938,44161 -39003,44226 -39068,44291 -39146,44323 -39238,44323 -39330,44323 -39409,44291 -39474,44226 -39539,44161 -39572,44082 -39572,43990 -39572,43898 -39539,43819 -39474,43754 -39409,43689 -39330,43657 -39238,43657 Z M -39238,43657 L -39238,43657 Z M -39534,47068 L -39534,45080 -39850,45080 -39850,44610 -38952,44610 -38952,47068 -39534,47068 Z M -39534,47068 L -39534,47068 Z M -38466,47698 L -38104,47251 C -37904,47436 -37680,47528 -37434,47528 -37269,47528 -37132,47503 -37025,47454 -36918,47404 -36865,47336 -36865,47250 -36865,47104 -36983,47030 -37220,47030 -37285,47030 -37381,47038 -37507,47054 -37634,47069 -37730,47077 -37795,47077 -38189,47077 -38387,46935 -38387,46652 -38387,46571 -38354,46491 -38289,46413 -38223,46335 -38147,46278 -38060,46241 -38340,46060 -38480,45802 -38480,45470 -38480,45208 -38384,44991 -38191,44820 -37997,44648 -37760,44563 -37478,44563 -37258,44563 -37073,44605 -36924,44687 L -36699,44427 -36301,44785 -36575,44983 C -36480,45127 -36433,45296 -36433,45491 -36433,45769 -36518,45993 -36689,46159 -36860,46326 -37075,46410 -37336,46410 -37377,46410 -37432,46406 -37501,46399 L -37596,46387 C -37606,46387 -37647,46403 -37717,46436 -37788,46469 -37823,46503 -37823,46538 -37823,46600 -37770,46631 -37665,46631 -37617,46631 -37537,46619 -37426,46596 -37314,46572 -37219,46560 -37139,46560 -36580,46560 -36301,46785 -36301,47234 -36301,47482 -36413,47677 -36636,47818 -36860,47960 -37129,48031 -37445,48031 -37821,48031 -38162,47919 -38466,47698 Z M -38466,47698 L -38466,47698 Z M -37893,45471 C -37893,45615 -37853,45731 -37772,45818 -37691,45906 -37583,45950 -37446,45950 -37309,45950 -37204,45907 -37130,45821 -37056,45737 -37020,45620 -37020,45471 -37020,45349 -37060,45245 -37139,45160 -37218,45075 -37320,45033 -37446,45033 -37579,45033 -37686,45073 -37769,45156 -37852,45237 -37893,45343 -37893,45471 Z M -37893,45471 L -37893,45471 Z M -34347,47068 L -34347,45646 C -34347,45436 -34387,45283 -34468,45187 -34547,45091 -34678,45042 -34860,45042 -34944,45042 -35034,45066 -35129,45113 -35225,45160 -35299,45220 -35352,45290 L -35352,47068 -35925,47068 -35925,44610 -35513,44610 -35408,44839 C -35252,44655 -35022,44563 -34718,44563 -34426,44563 -34196,44651 -34027,44826 -33858,45001 -33773,45246 -33773,45559 L -33773,47068 -34347,47068 Z M -34347,47068 L -34347,47068 Z M -31785,46823 C -31836,46908 -31927,46978 -32056,47033 -32185,47087 -32320,47115 -32461,47115 -32725,47115 -32933,47048 -33084,46916 -33235,46783 -33311,46596 -33311,46352 -33311,46067 -33205,45843 -32992,45683 -32779,45522 -32476,45441 -32084,45441 -32016,45441 -31937,45452 -31846,45474 -31846,45186 -32028,45042 -32393,45042 -32608,45042 -32789,45078 -32934,45150 L -33057,44704 C -32860,44610 -32625,44563 -32353,44563 -31979,44563 -31704,44648 -31529,44819 -31355,44990 -31268,45312 -31268,45788 L -31268,46314 C -31268,46642 -31202,46848 -31071,46931 -31118,47015 -31171,47066 -31229,47086 -31287,47105 -31353,47115 -31428,47115 -31511,47115 -31586,47084 -31651,47022 -31717,46961 -31762,46895 -31785,46823 Z M -31785,46823 L -31785,46823 Z M -31841,45907 C -31939,45889 -32012,45879 -32061,45879 -32513,45879 -32738,46029 -32738,46327 -32738,46549 -32610,46659 -32356,46659 -32012,46659 -31841,46485 -31841,46138 L -31841,45907 Z"/>
                <path fill="none" stroke="rgb(255,236,0)" stroke-width="200" stroke-linejoin="round" stroke-linecap="square" d="M -41925,47068 L -42670,47068 -42670,43710 C -42195,43693 -41896,43685 -41774,43685 -41285,43685 -40897,43828 -40611,44114 -40324,44401 -40181,44781 -40181,45255 -40181,46464 -40763,47068 -41925,47068 Z"/>
                <path fill="none" stroke="rgb(255,236,0)" stroke-width="200" stroke-linejoin="round" stroke-linecap="square" d="M -42074,44232 L -42074,46523 C -41978,46532 -41874,46537 -41762,46537 -41462,46537 -41226,46428 -41056,46210 -40886,45991 -40801,45685 -40801,45292 -40801,44574 -41135,44215 -41802,44215 -41866,44215 -41957,44221 -42074,44232 Z"/>
                <path fill="none" stroke="rgb(255,236,0)" stroke-width="200" stroke-linejoin="round" stroke-linecap="square" d="M -39238,43657 C -39146,43657 -39068,43689 -39003,43754 -38938,43819 -38905,43898 -38905,43990 -38905,44082 -38938,44161 -39003,44226 -39068,44291 -39146,44323 -39238,44323 -39330,44323 -39409,44291 -39474,44226 -39539,44161 -39572,44082 -39572,43990 -39572,43898 -39539,43819 -39474,43754 -39409,43689 -39330,43657 -39238,43657 Z"/>
                <path fill="none" stroke="rgb(255,236,0)" stroke-width="200" stroke-linejoin="round" stroke-linecap="square" d="M -39534,47068 L -39534,45080 -39850,45080 -39850,44610 -38952,44610 -38952,47068 -39534,47068 Z"/>
                <path fill="none" stroke="rgb(255,236,0)" stroke-width="200" stroke-linejoin="round" stroke-linecap="square" d="M -38466,47698 L -38104,47251 C -37904,47436 -37680,47528 -37434,47528 -37269,47528 -37132,47503 -37025,47454 -36918,47404 -36865,47336 -36865,47250 -36865,47104 -36983,47030 -37220,47030 -37285,47030 -37381,47038 -37507,47054 -37634,47069 -37730,47077 -37795,47077 -38189,47077 -38387,46935 -38387,46652 -38387,46571 -38354,46491 -38289,46413 -38223,46335 -38147,46278 -38060,46241 -38340,46060 -38480,45802 -38480,45470 -38480,45208 -38384,44991 -38191,44820 -37997,44648 -37760,44563 -37478,44563 -37258,44563 -37073,44605 -36924,44687 L -36699,44427 -36301,44785 -36575,44983 C -36480,45127 -36433,45296 -36433,45491 -36433,45769 -36518,45993 -36689,46159 -36860,46326 -37075,46410 -37336,46410 -37377,46410 -37432,46406 -37501,46399 L -37596,46387 C -37606,46387 -37647,46403 -37717,46436 -37788,46469 -37823,46503 -37823,46538 -37823,46600 -37770,46631 -37665,46631 -37617,46631 -37537,46619 -37426,46596 -37314,46572 -37219,46560 -37139,46560 -36580,46560 -36301,46785 -36301,47234 -36301,47482 -36413,47677 -36636,47818 -36860,47960 -37129,48031 -37445,48031 -37821,48031 -38162,47919 -38466,47698 Z"/>
                <path fill="none" stroke="rgb(255,236,0)" stroke-width="200" stroke-linejoin="round" stroke-linecap="square" d="M -37893,45471 C -37893,45615 -37853,45731 -37772,45818 -37691,45906 -37583,45950 -37446,45950 -37309,45950 -37204,45907 -37130,45821 -37056,45737 -37020,45620 -37020,45471 -37020,45349 -37060,45245 -37139,45160 -37218,45075 -37320,45033 -37446,45033 -37579,45033 -37686,45073 -37769,45156 -37852,45237 -37893,45343 -37893,45471 Z"/>
                <path fill="none" stroke="rgb(255,236,0)" stroke-width="200" stroke-linejoin="round" stroke-linecap="square" d="M -34347,47068 L -34347,45646 C -34347,45436 -34387,45283 -34468,45187 -34547,45091 -34678,45042 -34860,45042 -34944,45042 -35034,45066 -35129,45113 -35225,45160 -35299,45220 -35352,45290 L -35352,47068 -35925,47068 -35925,44610 -35513,44610 -35408,44839 C -35252,44655 -35022,44563 -34718,44563 -34426,44563 -34196,44651 -34027,44826 -33858,45001 -33773,45246 -33773,45559 L -33773,47068 -34347,47068 Z"/>
                <path fill="none" stroke="rgb(255,236,0)" stroke-width="200" stroke-linejoin="round" stroke-linecap="square" d="M -31785,46823 C -31836,46908 -31927,46978 -32056,47033 -32185,47087 -32320,47115 -32461,47115 -32725,47115 -32933,47048 -33084,46916 -33235,46783 -33311,46596 -33311,46352 -33311,46067 -33205,45843 -32992,45683 -32779,45522 -32476,45441 -32084,45441 -32016,45441 -31937,45452 -31846,45474 -31846,45186 -32028,45042 -32393,45042 -32608,45042 -32789,45078 -32934,45150 L -33057,44704 C -32860,44610 -32625,44563 -32353,44563 -31979,44563 -31704,44648 -31529,44819 -31355,44990 -31268,45312 -31268,45788 L -31268,46314 C -31268,46642 -31202,46848 -31071,46931 -31118,47015 -31171,47066 -31229,47086 -31287,47105 -31353,47115 -31428,47115 -31511,47115 -31586,47084 -31651,47022 -31717,46961 -31762,46895 -31785,46823 Z"/>
                <path fill="none" stroke="rgb(255,236,0)" stroke-width="200" stroke-linejoin="round" stroke-linecap="square" d="M -31841,45907 C -31939,45889 -32012,45879 -32061,45879 -32513,45879 -32738,46029 -32738,46327 -32738,46549 -32610,46659 -32356,46659 -32012,46659 -31841,46485 -31841,46138 L -31841,45907 Z"/>
              </g>
            </g>
            <g class="com.sun.star.drawing.ClosedBezierShape">
              <g id="id23">
                <rect class="BoundingBox" stroke="none" fill="none" x="-31247" y="43917" width="6956" height="3368"/>
                <path fill="rgb(255,236,0)" stroke="none" d="M -29597,44510 L -29597,47140 -30152,47140 -30152,44510 -31147,44510 -31147,44017 -28558,44017 -28558,44510 -29597,44510 Z M -29597,44510 L -29597,44510 Z M -26673,46161 L -28305,46161 C -28295,46343 -28232,46486 -28117,46587 -28002,46688 -27847,46739 -27651,46739 -27408,46739 -27223,46676 -27096,46551 L -26889,46957 C -27077,47108 -27357,47184 -27729,47184 -28078,47184 -28353,47082 -28556,46878 -28758,46674 -28860,46388 -28860,46022 -28860,45662 -28748,45370 -28526,45147 -28304,44923 -28037,44812 -27725,44812 -27394,44812 -27128,44911 -26928,45109 -26728,45307 -26627,45559 -26627,45864 -26627,45930 -26643,46029 -26673,46161 Z M -26673,46161 L -26673,46161 Z M -28283,45760 L -27165,45760 C -27202,45425 -27386,45258 -27717,45258 -28021,45258 -28210,45425 -28283,45760 Z M -28283,45760 L -28283,45760 Z M -24411,45035 L -24639,45432 C -24764,45316 -24931,45258 -25141,45258 -25343,45258 -25502,45324 -25620,45459 -25737,45594 -25795,45780 -25795,46018 -25795,46499 -25567,46739 -25111,46739 -24914,46739 -24740,46673 -24589,46542 L -24393,46961 C -24548,47058 -24684,47120 -24799,47145 -24915,47171 -25052,47184 -25209,47184 -25562,47184 -25840,47081 -26044,46875 -26248,46670 -26349,46383 -26349,46018 -26349,45658 -26238,45367 -26015,45145 -25792,44923 -25488,44812 -25103,44812 -24837,44812 -24607,44886 -24411,45035 Z"/>
                <path fill="none" stroke="rgb(20,23,16)" stroke-width="200" stroke-linejoin="round" stroke-linecap="square" d="M -29597,44510 L -29597,47140 -30152,47140 -30152,44510 -31147,44510 -31147,44017 -28558,44017 -28558,44510 -29597,44510 Z"/>
                <path fill="none" stroke="rgb(20,23,16)" stroke-width="200" stroke-linejoin="round" stroke-linecap="square" d="M -26673,46161 L -28305,46161 C -28295,46343 -28232,46486 -28117,46587 -28002,46688 -27847,46739 -27651,46739 -27408,46739 -27223,46676 -27096,46551 L -26889,46957 C -27077,47108 -27357,47184 -27729,47184 -28078,47184 -28353,47082 -28556,46878 -28758,46674 -28860,46388 -28860,46022 -28860,45662 -28748,45370 -28526,45147 -28304,44923 -28037,44812 -27725,44812 -27394,44812 -27128,44911 -26928,45109 -26728,45307 -26627,45559 -26627,45864 -26627,45930 -26643,46029 -26673,46161 Z"/>
                <path fill="none" stroke="rgb(20,23,16)" stroke-width="200" stroke-linejoin="round" stroke-linecap="square" d="M -28283,45760 L -27165,45760 C -27202,45425 -27386,45258 -27717,45258 -28021,45258 -28210,45425 -28283,45760 Z"/>
                <path fill="none" stroke="rgb(20,23,16)" stroke-width="200" stroke-linejoin="round" stroke-linecap="square" d="M -24411,45035 L -24639,45432 C -24764,45316 -24931,45258 -25141,45258 -25343,45258 -25502,45324 -25620,45459 -25737,45594 -25795,45780 -25795,46018 -25795,46499 -25567,46739 -25111,46739 -24914,46739 -24740,46673 -24589,46542 L -24393,46961 C -24548,47058 -24684,47120 -24799,47145 -24915,47171 -25052,47184 -25209,47184 -25562,47184 -25840,47081 -26044,46875 -26248,46670 -26349,46383 -26349,46018 -26349,45658 -26238,45367 -26015,45145 -25792,44923 -25488,44812 -25103,44812 -24837,44812 -24607,44886 -24411,45035 Z"/>
              </g>
            </g>
            <g class="com.sun.star.drawing.PolyPolygonShape">
              <g id="id24">
                <rect class="BoundingBox" stroke="none" fill="none" x="52" y="51185" width="21502" height="21502"/>
                <path fill="rgb(27,25,24)" stroke="none" d="M 21553,72686 L 52,51185 52,72686 21553,72686 Z"/>
              </g>
            </g>
            <g class="com.sun.star.drawing.PolyLineShape">
              <g id="id25">
                <rect class="BoundingBox" stroke="none" fill="none" x="42" y="51185" width="21512" height="21512"/>
                <path fill="none" stroke="rgb(27,25,24)" stroke-width="20" stroke-linejoin="miter" d="M 52,51185 L 52,72686 21553,72686"/>
              </g>
            </g>
            <g class="Group">
              <g class="com.sun.star.drawing.PolyPolygonShape">
                <g id="id26">
                  <rect class="BoundingBox" stroke="none" fill="none" x="6314" y="51185" width="15239" height="21502"/>
                  <path fill="rgb(255,236,0)" stroke="none" d="M 21552,72686 L 6314,51185 21552,51185 21552,72686 Z"/>
                </g>
              </g>
              <g class="com.sun.star.drawing.PolyLineShape">
                <g id="id27">
                  <rect class="BoundingBox" stroke="none" fill="none" x="6314" y="51175" width="15249" height="21512"/>
                  <path fill="none" stroke="rgb(27,25,24)" stroke-width="20" stroke-linejoin="miter" d="M 6314,51185 L 21552,51185 21552,72686"/>
                </g>
              </g>
            </g>
            <g class="TextShape">
              <g id="id28">
                <rect class="BoundingBox" stroke="none" fill="none" x="1468" y="60016" width="23197" height="5446"/>
                <text class="SVGTextShape" style="white-space: pre;"><tspan class="TextParagraph" font-family="Trebuchet MS, sans-serif" font-size="4692px" font-weight="400"><tspan class="TextPosition" x="1468" y="64419"><tspan fill="rgb(27,25,24)" stroke="none" style="white-space: pre">Digna</tspan></tspan></tspan></text>
              </g>
            </g>
            <g class="TextShape">
              <g id="id29">
                <rect class="BoundingBox" stroke="none" fill="none" x="12860" y="60376" width="13639" height="5078"/>
                <text class="SVGTextShape" style="white-space: pre;"><tspan class="TextParagraph" font-family="Trebuchet MS, sans-serif" font-size="4374px" font-weight="400"><tspan class="TextPosition" x="12992" y="64482"><tspan fill="rgb(255,236,0)" stroke="none" style="white-space: pre">Tec</tspan></tspan></tspan></text>
              </g>
            </g>
            <g class="TextShape">
              <g id="id30">
                <rect class="BoundingBox" stroke="none" fill="none" x="-81007" y="8250" width="23197" height="5446"/>
                <text class="SVGTextShape" style="white-space: pre;"><tspan class="TextParagraph" font-family="Trebuchet MS, sans-serif" font-size="4692px" font-weight="400"><tspan class="TextPosition" x="-81007" y="12653"><tspan fill="rgb(27,25,24)" stroke="none" style="white-space: pre">Digna</tspan></tspan></tspan></text>
              </g>
            </g>
            <g class="TextShape">
              <g id="id31">
                <rect class="BoundingBox" stroke="none" fill="none" x="-69616" y="8610" width="13639" height="5078"/>
                <text class="SVGTextShape" style="white-space: pre;"><tspan class="TextParagraph" font-family="Trebuchet MS, sans-serif" font-size="4374px" font-weight="400"><tspan class="TextPosition" x="-69484" y="12716"><tspan fill="rgb(255,236,0)" stroke="none" style="white-space: pre">Tec</tspan></tspan></tspan></text>
              </g>
            </g>
            <g class="com.sun.star.drawing.ClosedBezierShape">
              <g id="id32">
                <rect class="BoundingBox" stroke="none" fill="none" x="-47504" y="-20356" width="19717" height="20360"/>
                <path fill="rgb(27,25,24)" stroke="none" d="M -47504,-472 C -43549,-3328 -41993,-6475 -40988,-9628 -39546,-14156 -35742,-17358 -29013,-20356 -28285,-19962 -27788,-19190 -27788,-18308 L -27788,-2325 C -27788,-1044 -28836,3 -30116,3 L -46099,3 C -46626,3 -47113,-174 -47504,-472 Z"/>
              </g>
            </g>
            <g class="com.sun.star.drawing.ClosedBezierShape">
              <g id="id33">
                <rect class="BoundingBox" stroke="none" fill="none" x="-48427" y="-20636" width="19717" height="20360"/>
                <path fill="rgb(255,236,0)" stroke="none" d="M -28711,-20161 C -32666,-17305 -34913,-15393 -35601,-11005 -36420,-5789 -40473,-3275 -47202,-277 -47930,-671 -48427,-1443 -48427,-2325 L -48427,-18308 C -48427,-19589 -47380,-20636 -46099,-20636 L -30116,-20636 C -29589,-20636 -29102,-20459 -28711,-20161 Z"/>
              </g>
            </g>
            <g class="com.sun.star.drawing.ClosedBezierShape">
              <g id="id34">
                <rect class="BoundingBox" stroke="none" fill="none" x="-47394" y="-12569" width="11334" height="4399"/>
                <path fill="rgb(255,236,0)" stroke="none" d="M -46578,-9195 L -47293,-9195 -47293,-12418 C -46837,-12434 -46550,-12442 -46433,-12442 -45964,-12442 -45592,-12305 -45317,-12030 -45042,-11755 -44904,-11389 -44904,-10934 -44904,-9775 -45463,-9195 -46578,-9195 Z M -46578,-9195 L -46578,-9195 Z M -46721,-11917 L -46721,-9719 C -46629,-9710 -46529,-9705 -46422,-9705 -46133,-9705 -45907,-9810 -45744,-10019 -45581,-10229 -45499,-10522 -45499,-10899 -45499,-11589 -45819,-11933 -46460,-11933 -46521,-11933 -46608,-11928 -46721,-11917 Z M -46721,-11917 L -46721,-11917 Z M -44000,-12469 C -43912,-12469 -43837,-12438 -43774,-12376 -43712,-12313 -43680,-12238 -43680,-12149 -43680,-12062 -43712,-11986 -43774,-11923 -43837,-11861 -43912,-11829 -44000,-11829 -44088,-11829 -44164,-11861 -44227,-11923 -44289,-11986 -44320,-12062 -44320,-12149 -44320,-12238 -44289,-12313 -44227,-12376 -44164,-12438 -44088,-12469 -44000,-12469 Z M -44000,-12469 L -44000,-12469 Z M -44284,-9195 L -44284,-11103 -44586,-11103 -44586,-11554 -43725,-11554 -43725,-9195 -44284,-9195 Z M -44284,-9195 L -44284,-9195 Z M -43260,-8590 L -42912,-9019 C -42719,-8842 -42505,-8753 -42269,-8753 -42110,-8753 -41979,-8777 -41876,-8824 -41773,-8872 -41721,-8937 -41721,-9020 -41721,-9160 -41836,-9231 -42063,-9231 -42126,-9231 -42217,-9223 -42339,-9208 -42461,-9193 -42553,-9186 -42615,-9186 -42994,-9186 -43183,-9323 -43183,-9595 -43183,-9672 -43151,-9749 -43089,-9824 -43026,-9899 -42953,-9954 -42870,-9989 -43139,-10163 -43273,-10409 -43273,-10728 -43273,-10979 -43181,-11187 -42995,-11352 -42810,-11518 -42582,-11599 -42311,-11599 -42100,-11599 -41922,-11560 -41779,-11481 L -41562,-11730 -41180,-11386 -41443,-11195 C -41352,-11057 -41307,-10895 -41307,-10708 -41307,-10441 -41389,-10227 -41552,-10067 -41717,-9907 -41924,-9827 -42175,-9827 -42214,-9827 -42267,-9831 -42333,-9837 L -42424,-9849 C -42434,-9849 -42473,-9834 -42541,-9802 -42608,-9770 -42642,-9737 -42642,-9704 -42642,-9644 -42592,-9615 -42490,-9615 -42444,-9615 -42368,-9626 -42261,-9649 -42154,-9671 -42062,-9683 -41985,-9683 -41449,-9683 -41180,-9467 -41180,-9035 -41180,-8797 -41288,-8610 -41502,-8474 -41717,-8338 -41976,-8271 -42279,-8271 -42640,-8271 -42967,-8377 -43260,-8590 Z M -43260,-8590 L -43260,-8590 Z M -42710,-10727 C -42710,-10589 -42671,-10477 -42593,-10394 -42516,-10311 -42411,-10269 -42281,-10269 -42149,-10269 -42048,-10309 -41977,-10391 -41906,-10472 -41871,-10584 -41871,-10727 -41871,-10844 -41909,-10944 -41985,-11025 -42061,-11107 -42160,-11148 -42281,-11148 -42408,-11148 -42511,-11109 -42590,-11030 -42670,-10952 -42710,-10850 -42710,-10727 Z M -42710,-10727 L -42710,-10727 Z M -39305,-9195 L -39305,-10559 C -39305,-10761 -39343,-10907 -39421,-11000 -39497,-11092 -39623,-11139 -39797,-11139 -39878,-11139 -39964,-11116 -40056,-11070 -40147,-11025 -40219,-10968 -40270,-10900 L -40270,-9195 -40820,-9195 -40820,-11554 -40424,-11554 -40323,-11333 C -40174,-11511 -39953,-11599 -39661,-11599 -39381,-11599 -39160,-11515 -38998,-11346 -38836,-11178 -38755,-10943 -38755,-10643 L -38755,-9195 -39305,-9195 Z M -39305,-9195 L -39305,-9195 Z M -36847,-9431 C -36896,-9349 -36983,-9280 -37107,-9228 -37231,-9176 -37361,-9150 -37496,-9150 -37749,-9150 -37949,-9213 -38094,-9341 -38239,-9468 -38312,-9649 -38312,-9882 -38312,-10156 -38210,-10370 -38005,-10524 -37801,-10678 -37510,-10755 -37134,-10755 -37069,-10755 -36993,-10745 -36905,-10724 -36905,-11000 -37080,-11139 -37430,-11139 -37637,-11139 -37811,-11104 -37950,-11035 L -38068,-11464 C -37879,-11554 -37654,-11599 -37392,-11599 -37033,-11599 -36769,-11518 -36602,-11353 -36434,-11189 -36351,-10879 -36351,-10423 L -36351,-9918 C -36351,-9604 -36288,-9407 -36161,-9326 -36207,-9245 -36258,-9196 -36313,-9177 -36369,-9159 -36433,-9150 -36505,-9150 -36584,-9150 -36656,-9179 -36719,-9238 -36782,-9297 -36825,-9362 -36847,-9431 Z M -36847,-9431 L -36847,-9431 Z M -36901,-10309 C -36995,-10327 -37065,-10336 -37112,-10336 -37545,-10336 -37762,-10193 -37762,-9906 -37762,-9694 -37639,-9588 -37395,-9588 -37065,-9588 -36901,-9755 -36901,-10088 L -36901,-10309 Z"/>
                <path fill="none" stroke="rgb(27,25,24)" stroke-width="200" stroke-linejoin="round" stroke-linecap="square" d="M -46578,-9195 L -47293,-9195 -47293,-12418 C -46837,-12434 -46550,-12442 -46433,-12442 -45964,-12442 -45592,-12305 -45317,-12030 -45042,-11755 -44904,-11389 -44904,-10934 -44904,-9775 -45463,-9195 -46578,-9195 Z"/>
                <path fill="none" stroke="rgb(27,25,24)" stroke-width="200" stroke-linejoin="round" stroke-linecap="square" d="M -46721,-11917 L -46721,-9719 C -46629,-9710 -46529,-9705 -46422,-9705 -46133,-9705 -45907,-9810 -45744,-10019 -45581,-10229 -45499,-10522 -45499,-10899 -45499,-11589 -45819,-11933 -46460,-11933 -46521,-11933 -46608,-11928 -46721,-11917 Z"/>
                <path fill="none" stroke="rgb(27,25,24)" stroke-width="200" stroke-linejoin="round" stroke-linecap="square" d="M -44000,-12469 C -43912,-12469 -43837,-12438 -43774,-12376 -43712,-12313 -43680,-12238 -43680,-12149 -43680,-12062 -43712,-11986 -43774,-11923 -43837,-11861 -43912,-11829 -44000,-11829 -44088,-11829 -44164,-11861 -44227,-11923 -44289,-11986 -44320,-12062 -44320,-12149 -44320,-12238 -44289,-12313 -44227,-12376 -44164,-12438 -44088,-12469 -44000,-12469 Z"/>
                <path fill="none" stroke="rgb(27,25,24)" stroke-width="200" stroke-linejoin="round" stroke-linecap="square" d="M -44284,-9195 L -44284,-11103 -44586,-11103 -44586,-11554 -43725,-11554 -43725,-9195 -44284,-9195 Z"/>
                <path fill="none" stroke="rgb(27,25,24)" stroke-width="200" stroke-linejoin="round" stroke-linecap="square" d="M -43260,-8590 L -42912,-9019 C -42719,-8842 -42505,-8753 -42269,-8753 -42110,-8753 -41979,-8777 -41876,-8824 -41773,-8872 -41721,-8937 -41721,-9020 -41721,-9160 -41836,-9231 -42063,-9231 -42126,-9231 -42217,-9223 -42339,-9208 -42461,-9193 -42553,-9186 -42615,-9186 -42994,-9186 -43183,-9323 -43183,-9595 -43183,-9672 -43151,-9749 -43089,-9824 -43026,-9899 -42953,-9954 -42870,-9989 -43139,-10163 -43273,-10409 -43273,-10728 -43273,-10979 -43181,-11187 -42995,-11352 -42810,-11518 -42582,-11599 -42311,-11599 -42100,-11599 -41922,-11560 -41779,-11481 L -41562,-11730 -41180,-11386 -41443,-11195 C -41352,-11057 -41307,-10895 -41307,-10708 -41307,-10441 -41389,-10227 -41552,-10067 -41717,-9907 -41924,-9827 -42175,-9827 -42214,-9827 -42267,-9831 -42333,-9837 L -42424,-9849 C -42434,-9849 -42473,-9834 -42541,-9802 -42608,-9770 -42642,-9737 -42642,-9704 -42642,-9644 -42592,-9615 -42490,-9615 -42444,-9615 -42368,-9626 -42261,-9649 -42154,-9671 -42062,-9683 -41985,-9683 -41449,-9683 -41180,-9467 -41180,-9035 -41180,-8797 -41288,-8610 -41502,-8474 -41717,-8338 -41976,-8271 -42279,-8271 -42640,-8271 -42967,-8377 -43260,-8590 Z"/>
                <path fill="none" stroke="rgb(27,25,24)" stroke-width="200" stroke-linejoin="round" stroke-linecap="square" d="M -42710,-10727 C -42710,-10589 -42671,-10477 -42593,-10394 -42516,-10311 -42411,-10269 -42281,-10269 -42149,-10269 -42048,-10309 -41977,-10391 -41906,-10472 -41871,-10584 -41871,-10727 -41871,-10844 -41909,-10944 -41985,-11025 -42061,-11107 -42160,-11148 -42281,-11148 -42408,-11148 -42511,-11109 -42590,-11030 -42670,-10952 -42710,-10850 -42710,-10727 Z"/>
                <path fill="none" stroke="rgb(27,25,24)" stroke-width="200" stroke-linejoin="round" stroke-linecap="square" d="M -39305,-9195 L -39305,-10559 C -39305,-10761 -39343,-10907 -39421,-11000 -39497,-11092 -39623,-11139 -39797,-11139 -39878,-11139 -39964,-11116 -40056,-11070 -40147,-11025 -40219,-10968 -40270,-10900 L -40270,-9195 -40820,-9195 -40820,-11554 -40424,-11554 -40323,-11333 C -40174,-11511 -39953,-11599 -39661,-11599 -39381,-11599 -39160,-11515 -38998,-11346 -38836,-11178 -38755,-10943 -38755,-10643 L -38755,-9195 -39305,-9195 Z"/>
                <path fill="none" stroke="rgb(27,25,24)" stroke-width="200" stroke-linejoin="round" stroke-linecap="square" d="M -36847,-9431 C -36896,-9349 -36983,-9280 -37107,-9228 -37231,-9176 -37361,-9150 -37496,-9150 -37749,-9150 -37949,-9213 -38094,-9341 -38239,-9468 -38312,-9649 -38312,-9882 -38312,-10156 -38210,-10370 -38005,-10524 -37801,-10678 -37510,-10755 -37134,-10755 -37069,-10755 -36993,-10745 -36905,-10724 -36905,-11000 -37080,-11139 -37430,-11139 -37637,-11139 -37811,-11104 -37950,-11035 L -38068,-11464 C -37879,-11554 -37654,-11599 -37392,-11599 -37033,-11599 -36769,-11518 -36602,-11353 -36434,-11189 -36351,-10879 -36351,-10423 L -36351,-9918 C -36351,-9604 -36288,-9407 -36161,-9326 -36207,-9245 -36258,-9196 -36313,-9177 -36369,-9159 -36433,-9150 -36505,-9150 -36584,-9150 -36656,-9179 -36719,-9238 -36782,-9297 -36825,-9362 -36847,-9431 Z"/>
                <path fill="none" stroke="rgb(27,25,24)" stroke-width="200" stroke-linejoin="round" stroke-linecap="square" d="M -36901,-10309 C -36995,-10327 -37065,-10336 -37112,-10336 -37545,-10336 -37762,-10193 -37762,-9906 -37762,-9694 -37639,-9588 -37395,-9588 -37065,-9588 -36901,-9755 -36901,-10088 L -36901,-10309 Z"/>
              </g>
            </g>
            <g class="com.sun.star.drawing.ClosedBezierShape">
              <g id="id35">
                <rect class="BoundingBox" stroke="none" fill="none" x="-35330" y="-12209" width="6415" height="3114"/>
                <path fill="rgb(27,25,24)" stroke="none" d="M -33804,-11656 L -33804,-9236 -34315,-9236 -34315,-11656 -35230,-11656 -35230,-12109 -32848,-12109 -32848,-11656 -33804,-11656 Z M -33804,-11656 L -33804,-11656 Z M -31113,-10136 L -32615,-10136 C -32606,-9969 -32548,-9838 -32443,-9745 -32337,-9652 -32194,-9606 -32014,-9606 -31789,-9606 -31619,-9663 -31503,-9779 L -31313,-9405 C -31486,-9266 -31743,-9196 -32085,-9196 -32406,-9196 -32660,-9290 -32846,-9478 -33032,-9665 -33126,-9928 -33126,-10264 -33126,-10595 -33023,-10865 -32819,-11070 -32614,-11276 -32369,-11378 -32081,-11378 -31777,-11378 -31532,-11287 -31348,-11105 -31164,-10923 -31072,-10691 -31072,-10409 -31072,-10349 -31086,-10258 -31113,-10136 Z M -31113,-10136 L -31113,-10136 Z M -32595,-10506 L -31566,-10506 C -31600,-10815 -31769,-10969 -32074,-10969 -32354,-10969 -32528,-10815 -32595,-10506 Z M -32595,-10506 L -32595,-10506 Z M -29032,-11174 L -29242,-10808 C -29357,-10915 -29511,-10969 -29705,-10969 -29890,-10969 -30037,-10907 -30144,-10783 -30252,-10659 -30306,-10487 -30306,-10268 -30306,-9827 -30096,-9606 -29676,-9606 -29495,-9606 -29335,-9666 -29196,-9787 L -29016,-9401 C -29159,-9312 -29283,-9255 -29390,-9232 -29496,-9208 -29622,-9196 -29767,-9196 -30092,-9196 -30347,-9290 -30535,-9480 -30722,-9669 -30816,-9932 -30816,-10268 -30816,-10599 -30714,-10868 -30508,-11072 -30303,-11277 -30023,-11378 -29669,-11378 -29425,-11378 -29212,-11310 -29032,-11174 Z"/>
                <path fill="none" stroke="rgb(255,236,0)" stroke-width="200" stroke-linejoin="round" stroke-linecap="square" d="M -33804,-11656 L -33804,-9236 -34315,-9236 -34315,-11656 -35230,-11656 -35230,-12109 -32848,-12109 -32848,-11656 -33804,-11656 Z"/>
                <path fill="none" stroke="rgb(255,236,0)" stroke-width="200" stroke-linejoin="round" stroke-linecap="square" d="M -31113,-10136 L -32615,-10136 C -32606,-9969 -32548,-9838 -32443,-9745 -32337,-9652 -32194,-9606 -32014,-9606 -31789,-9606 -31619,-9663 -31503,-9779 L -31313,-9405 C -31486,-9266 -31743,-9196 -32085,-9196 -32406,-9196 -32660,-9290 -32846,-9478 -33032,-9665 -33126,-9928 -33126,-10264 -33126,-10595 -33023,-10865 -32819,-11070 -32614,-11276 -32369,-11378 -32081,-11378 -31777,-11378 -31532,-11287 -31348,-11105 -31164,-10923 -31072,-10691 -31072,-10409 -31072,-10349 -31086,-10258 -31113,-10136 Z"/>
                <path fill="none" stroke="rgb(255,236,0)" stroke-width="200" stroke-linejoin="round" stroke-linecap="square" d="M -32595,-10506 L -31566,-10506 C -31600,-10815 -31769,-10969 -32074,-10969 -32354,-10969 -32528,-10815 -32595,-10506 Z"/>
                <path fill="none" stroke="rgb(255,236,0)" stroke-width="200" stroke-linejoin="round" stroke-linecap="square" d="M -29032,-11174 L -29242,-10808 C -29357,-10915 -29511,-10969 -29705,-10969 -29890,-10969 -30037,-10907 -30144,-10783 -30252,-10659 -30306,-10487 -30306,-10268 -30306,-9827 -30096,-9606 -29676,-9606 -29495,-9606 -29335,-9666 -29196,-9787 L -29016,-9401 C -29159,-9312 -29283,-9255 -29390,-9232 -29496,-9208 -29622,-9196 -29767,-9196 -30092,-9196 -30347,-9290 -30535,-9480 -30722,-9669 -30816,-9932 -30816,-10268 -30816,-10599 -30714,-10868 -30508,-11072 -30303,-11277 -30023,-11378 -29669,-11378 -29425,-11378 -29212,-11310 -29032,-11174 Z"/>
              </g>
            </g>
            <g class="com.sun.star.drawing.ClosedBezierShape">
              <g id="id36">
                <rect class="BoundingBox" stroke="none" fill="none" x="-48215" y="-52476" width="19717" height="20360"/>
                <path fill="rgb(255,236,0)" stroke="none" d="M -48215,-32592 C -44260,-35448 -42704,-38595 -41699,-41748 -40257,-46276 -36453,-49478 -29724,-52476 -28996,-52082 -28499,-51310 -28499,-50428 L -28499,-34445 C -28499,-33164 -29547,-32117 -30827,-32117 L -46810,-32117 C -47337,-32117 -47824,-32294 -48215,-32592 Z"/>
              </g>
            </g>
            <g class="com.sun.star.drawing.ClosedBezierShape">
              <g id="id37">
                <rect class="BoundingBox" stroke="none" fill="none" x="-49138" y="-52756" width="19717" height="20360"/>
                <path fill="rgb(27,25,24)" stroke="none" d="M -29422,-52281 C -33377,-49425 -35624,-47513 -36312,-43125 -37131,-37909 -41184,-35395 -47913,-32397 -48641,-32791 -49138,-33563 -49138,-34445 L -49138,-50428 C -49138,-51709 -48091,-52756 -46810,-52756 L -30827,-52756 C -30300,-52756 -29813,-52579 -29422,-52281 Z"/>
              </g>
            </g>
            <g class="com.sun.star.drawing.ClosedBezierShape">
              <g id="id38">
                <rect class="BoundingBox" stroke="none" fill="none" x="-48104" y="-44689" width="11334" height="4399"/>
                <path fill="rgb(27,25,24)" stroke="none" d="M -47289,-41315 L -48004,-41315 -48004,-44538 C -47548,-44554 -47261,-44562 -47144,-44562 -46675,-44562 -46303,-44425 -46028,-44150 -45753,-43875 -45615,-43509 -45615,-43054 -45615,-41895 -46173,-41315 -47289,-41315 Z M -47289,-41315 L -47289,-41315 Z M -47432,-44037 L -47432,-41839 C -47340,-41830 -47240,-41825 -47133,-41825 -46844,-41825 -46618,-41930 -46455,-42139 -46292,-42349 -46210,-42642 -46210,-43019 -46210,-43709 -46530,-44053 -47171,-44053 -47232,-44053 -47319,-44048 -47432,-44037 Z M -47432,-44037 L -47432,-44037 Z M -44711,-44589 C -44623,-44589 -44548,-44558 -44485,-44496 -44423,-44433 -44391,-44358 -44391,-44269 -44391,-44182 -44423,-44106 -44485,-44043 -44548,-43981 -44623,-43949 -44711,-43949 -44799,-43949 -44875,-43981 -44938,-44043 -45000,-44106 -45031,-44182 -45031,-44269 -45031,-44358 -45000,-44433 -44938,-44496 -44875,-44558 -44799,-44589 -44711,-44589 Z M -44711,-44589 L -44711,-44589 Z M -44995,-41315 L -44995,-43223 -45297,-43223 -45297,-43674 -44436,-43674 -44436,-41315 -44995,-41315 Z M -44995,-41315 L -44995,-41315 Z M -43971,-40710 L -43623,-41139 C -43430,-40962 -43216,-40873 -42980,-40873 -42821,-40873 -42690,-40897 -42587,-40944 -42484,-40992 -42432,-41057 -42432,-41140 -42432,-41280 -42547,-41351 -42774,-41351 -42837,-41351 -42928,-41343 -43050,-41328 -43172,-41313 -43264,-41306 -43326,-41306 -43705,-41306 -43894,-41443 -43894,-41715 -43894,-41792 -43862,-41869 -43800,-41944 -43737,-42019 -43664,-42074 -43581,-42109 -43850,-42283 -43984,-42529 -43984,-42848 -43984,-43099 -43892,-43307 -43706,-43472 -43521,-43638 -43293,-43719 -43022,-43719 -42811,-43719 -42633,-43680 -42490,-43601 L -42273,-43850 -41891,-43506 -42154,-43315 C -42063,-43177 -42018,-43015 -42018,-42828 -42018,-42561 -42100,-42347 -42263,-42187 -42428,-42027 -42635,-41947 -42886,-41947 -42925,-41947 -42978,-41951 -43044,-41957 L -43135,-41969 C -43145,-41969 -43184,-41954 -43252,-41922 -43319,-41890 -43353,-41857 -43353,-41824 -43353,-41764 -43303,-41735 -43201,-41735 -43155,-41735 -43079,-41746 -42972,-41769 -42865,-41791 -42773,-41803 -42696,-41803 -42160,-41803 -41891,-41587 -41891,-41155 -41891,-40917 -41999,-40730 -42213,-40594 -42428,-40458 -42687,-40391 -42990,-40391 -43351,-40391 -43678,-40497 -43971,-40710 Z M -43971,-40710 L -43971,-40710 Z M -43421,-42847 C -43421,-42709 -43382,-42597 -43304,-42514 -43227,-42431 -43122,-42389 -42992,-42389 -42860,-42389 -42759,-42429 -42688,-42511 -42617,-42592 -42582,-42704 -42582,-42847 -42582,-42964 -42620,-43064 -42696,-43145 -42772,-43227 -42871,-43268 -42992,-43268 -43119,-43268 -43221,-43229 -43301,-43150 -43381,-43072 -43421,-42970 -43421,-42847 Z M -43421,-42847 L -43421,-42847 Z M -40016,-41315 L -40016,-42679 C -40016,-42881 -40054,-43027 -40132,-43120 -40208,-43212 -40334,-43259 -40508,-43259 -40589,-43259 -40675,-43236 -40767,-43190 -40858,-43145 -40930,-43088 -40981,-43020 L -40981,-41315 -41531,-41315 -41531,-43674 -41135,-43674 -41034,-43453 C -40885,-43631 -40664,-43719 -40372,-43719 -40092,-43719 -39871,-43635 -39709,-43466 -39547,-43298 -39466,-43063 -39466,-42763 L -39466,-41315 -40016,-41315 Z M -40016,-41315 L -40016,-41315 Z M -37558,-41551 C -37607,-41469 -37694,-41400 -37818,-41348 -37942,-41296 -38072,-41270 -38207,-41270 -38460,-41270 -38660,-41333 -38805,-41461 -38950,-41588 -39023,-41769 -39023,-42002 -39023,-42276 -38921,-42490 -38716,-42644 -38512,-42798 -38221,-42875 -37845,-42875 -37780,-42875 -37704,-42865 -37616,-42844 -37616,-43120 -37791,-43259 -38141,-43259 -38348,-43259 -38522,-43224 -38661,-43155 L -38779,-43584 C -38590,-43674 -38365,-43719 -38103,-43719 -37744,-43719 -37480,-43638 -37313,-43473 -37145,-43309 -37062,-42999 -37062,-42543 L -37062,-42038 C -37062,-41724 -36999,-41527 -36872,-41446 -36918,-41365 -36969,-41316 -37024,-41297 -37080,-41279 -37144,-41270 -37216,-41270 -37295,-41270 -37367,-41299 -37430,-41358 -37493,-41417 -37536,-41482 -37558,-41551 Z M -37558,-41551 L -37558,-41551 Z M -37612,-42429 C -37706,-42447 -37776,-42456 -37823,-42456 -38256,-42456 -38473,-42313 -38473,-42026 -38473,-41814 -38350,-41708 -38106,-41708 -37776,-41708 -37612,-41875 -37612,-42208 L -37612,-42429 Z"/>
                <path fill="none" stroke="rgb(255,236,0)" stroke-width="200" stroke-linejoin="round" stroke-linecap="square" d="M -47289,-41315 L -48004,-41315 -48004,-44538 C -47548,-44554 -47261,-44562 -47144,-44562 -46675,-44562 -46303,-44425 -46028,-44150 -45753,-43875 -45615,-43509 -45615,-43054 -45615,-41895 -46173,-41315 -47289,-41315 Z"/>
                <path fill="none" stroke="rgb(255,236,0)" stroke-width="200" stroke-linejoin="round" stroke-linecap="square" d="M -47432,-44037 L -47432,-41839 C -47340,-41830 -47240,-41825 -47133,-41825 -46844,-41825 -46618,-41930 -46455,-42139 -46292,-42349 -46210,-42642 -46210,-43019 -46210,-43709 -46530,-44053 -47171,-44053 -47232,-44053 -47319,-44048 -47432,-44037 Z"/>
                <path fill="none" stroke="rgb(255,236,0)" stroke-width="200" stroke-linejoin="round" stroke-linecap="square" d="M -44711,-44589 C -44623,-44589 -44548,-44558 -44485,-44496 -44423,-44433 -44391,-44358 -44391,-44269 -44391,-44182 -44423,-44106 -44485,-44043 -44548,-43981 -44623,-43949 -44711,-43949 -44799,-43949 -44875,-43981 -44938,-44043 -45000,-44106 -45031,-44182 -45031,-44269 -45031,-44358 -45000,-44433 -44938,-44496 -44875,-44558 -44799,-44589 -44711,-44589 Z"/>
                <path fill="none" stroke="rgb(255,236,0)" stroke-width="200" stroke-linejoin="round" stroke-linecap="square" d="M -44995,-41315 L -44995,-43223 -45297,-43223 -45297,-43674 -44436,-43674 -44436,-41315 -44995,-41315 Z"/>
                <path fill="none" stroke="rgb(255,236,0)" stroke-width="200" stroke-linejoin="round" stroke-linecap="square" d="M -43971,-40710 L -43623,-41139 C -43430,-40962 -43216,-40873 -42980,-40873 -42821,-40873 -42690,-40897 -42587,-40944 -42484,-40992 -42432,-41057 -42432,-41140 -42432,-41280 -42547,-41351 -42774,-41351 -42837,-41351 -42928,-41343 -43050,-41328 -43172,-41313 -43264,-41306 -43326,-41306 -43705,-41306 -43894,-41443 -43894,-41715 -43894,-41792 -43862,-41869 -43800,-41944 -43737,-42019 -43664,-42074 -43581,-42109 -43850,-42283 -43984,-42529 -43984,-42848 -43984,-43099 -43892,-43307 -43706,-43472 -43521,-43638 -43293,-43719 -43022,-43719 -42811,-43719 -42633,-43680 -42490,-43601 L -42273,-43850 -41891,-43506 -42154,-43315 C -42063,-43177 -42018,-43015 -42018,-42828 -42018,-42561 -42100,-42347 -42263,-42187 -42428,-42027 -42635,-41947 -42886,-41947 -42925,-41947 -42978,-41951 -43044,-41957 L -43135,-41969 C -43145,-41969 -43184,-41954 -43252,-41922 -43319,-41890 -43353,-41857 -43353,-41824 -43353,-41764 -43303,-41735 -43201,-41735 -43155,-41735 -43079,-41746 -42972,-41769 -42865,-41791 -42773,-41803 -42696,-41803 -42160,-41803 -41891,-41587 -41891,-41155 -41891,-40917 -41999,-40730 -42213,-40594 -42428,-40458 -42687,-40391 -42990,-40391 -43351,-40391 -43678,-40497 -43971,-40710 Z"/>
                <path fill="none" stroke="rgb(255,236,0)" stroke-width="200" stroke-linejoin="round" stroke-linecap="square" d="M -43421,-42847 C -43421,-42709 -43382,-42597 -43304,-42514 -43227,-42431 -43122,-42389 -42992,-42389 -42860,-42389 -42759,-42429 -42688,-42511 -42617,-42592 -42582,-42704 -42582,-42847 -42582,-42964 -42620,-43064 -42696,-43145 -42772,-43227 -42871,-43268 -42992,-43268 -43119,-43268 -43221,-43229 -43301,-43150 -43381,-43072 -43421,-42970 -43421,-42847 Z"/>
                <path fill="none" stroke="rgb(255,236,0)" stroke-width="200" stroke-linejoin="round" stroke-linecap="square" d="M -40016,-41315 L -40016,-42679 C -40016,-42881 -40054,-43027 -40132,-43120 -40208,-43212 -40334,-43259 -40508,-43259 -40589,-43259 -40675,-43236 -40767,-43190 -40858,-43145 -40930,-43088 -40981,-43020 L -40981,-41315 -41531,-41315 -41531,-43674 -41135,-43674 -41034,-43453 C -40885,-43631 -40664,-43719 -40372,-43719 -40092,-43719 -39871,-43635 -39709,-43466 -39547,-43298 -39466,-43063 -39466,-42763 L -39466,-41315 -40016,-41315 Z"/>
                <path fill="none" stroke="rgb(255,236,0)" stroke-width="200" stroke-linejoin="round" stroke-linecap="square" d="M -37558,-41551 C -37607,-41469 -37694,-41400 -37818,-41348 -37942,-41296 -38072,-41270 -38207,-41270 -38460,-41270 -38660,-41333 -38805,-41461 -38950,-41588 -39023,-41769 -39023,-42002 -39023,-42276 -38921,-42490 -38716,-42644 -38512,-42798 -38221,-42875 -37845,-42875 -37780,-42875 -37704,-42865 -37616,-42844 -37616,-43120 -37791,-43259 -38141,-43259 -38348,-43259 -38522,-43224 -38661,-43155 L -38779,-43584 C -38590,-43674 -38365,-43719 -38103,-43719 -37744,-43719 -37480,-43638 -37313,-43473 -37145,-43309 -37062,-42999 -37062,-42543 L -37062,-42038 C -37062,-41724 -36999,-41527 -36872,-41446 -36918,-41365 -36969,-41316 -37024,-41297 -37080,-41279 -37144,-41270 -37216,-41270 -37295,-41270 -37367,-41299 -37430,-41358 -37493,-41417 -37536,-41482 -37558,-41551 Z"/>
                <path fill="none" stroke="rgb(255,236,0)" stroke-width="200" stroke-linejoin="round" stroke-linecap="square" d="M -37612,-42429 C -37706,-42447 -37776,-42456 -37823,-42456 -38256,-42456 -38473,-42313 -38473,-42026 -38473,-41814 -38350,-41708 -38106,-41708 -37776,-41708 -37612,-41875 -37612,-42208 L -37612,-42429 Z"/>
              </g>
            </g>
            <g class="com.sun.star.drawing.ClosedBezierShape">
              <g id="id39">
                <rect class="BoundingBox" stroke="none" fill="none" x="-36042" y="-44329" width="6416" height="3114"/>
                <path fill="rgb(255,236,0)" stroke="none" d="M -34515,-43776 L -34515,-41356 -35026,-41356 -35026,-43776 -35941,-43776 -35941,-44229 -33559,-44229 -33559,-43776 -34515,-43776 Z M -34515,-43776 L -34515,-43776 Z M -31824,-42256 L -33326,-42256 C -33317,-42089 -33259,-41958 -33154,-41865 -33048,-41772 -32905,-41726 -32725,-41726 -32500,-41726 -32330,-41783 -32214,-41899 L -32024,-41525 C -32197,-41386 -32454,-41316 -32796,-41316 -33117,-41316 -33371,-41410 -33557,-41598 -33743,-41785 -33837,-42048 -33837,-42384 -33837,-42715 -33734,-42985 -33530,-43190 -33325,-43396 -33080,-43498 -32792,-43498 -32488,-43498 -32243,-43407 -32059,-43225 -31875,-43043 -31783,-42811 -31783,-42529 -31783,-42469 -31797,-42378 -31824,-42256 Z M -31824,-42256 L -31824,-42256 Z M -33306,-42626 L -32277,-42626 C -32311,-42935 -32480,-43089 -32785,-43089 -33065,-43089 -33239,-42935 -33306,-42626 Z M -33306,-42626 L -33306,-42626 Z M -29743,-43293 L -29953,-42928 C -30068,-43035 -30222,-43089 -30416,-43089 -30601,-43089 -30748,-43027 -30855,-42903 -30963,-42779 -31017,-42607 -31017,-42388 -31017,-41947 -30807,-41726 -30387,-41726 -30206,-41726 -30046,-41786 -29907,-41907 L -29727,-41521 C -29870,-41432 -29994,-41375 -30101,-41352 -30207,-41328 -30333,-41316 -30478,-41316 -30803,-41316 -31058,-41410 -31246,-41600 -31433,-41789 -31527,-42052 -31527,-42388 -31527,-42719 -31425,-42988 -31219,-43192 -31014,-43397 -30734,-43498 -30380,-43498 -30136,-43498 -29923,-43430 -29743,-43293 Z"/>
                <path fill="none" stroke="rgb(27,25,24)" stroke-width="200" stroke-linejoin="round" stroke-linecap="square" d="M -34515,-43776 L -34515,-41356 -35026,-41356 -35026,-43776 -35941,-43776 -35941,-44229 -33559,-44229 -33559,-43776 -34515,-43776 Z"/>
                <path fill="none" stroke="rgb(27,25,24)" stroke-width="200" stroke-linejoin="round" stroke-linecap="square" d="M -31824,-42256 L -33326,-42256 C -33317,-42089 -33259,-41958 -33154,-41865 -33048,-41772 -32905,-41726 -32725,-41726 -32500,-41726 -32330,-41783 -32214,-41899 L -32024,-41525 C -32197,-41386 -32454,-41316 -32796,-41316 -33117,-41316 -33371,-41410 -33557,-41598 -33743,-41785 -33837,-42048 -33837,-42384 -33837,-42715 -33734,-42985 -33530,-43190 -33325,-43396 -33080,-43498 -32792,-43498 -32488,-43498 -32243,-43407 -32059,-43225 -31875,-43043 -31783,-42811 -31783,-42529 -31783,-42469 -31797,-42378 -31824,-42256 Z"/>
                <path fill="none" stroke="rgb(27,25,24)" stroke-width="200" stroke-linejoin="round" stroke-linecap="square" d="M -33306,-42626 L -32277,-42626 C -32311,-42935 -32480,-43089 -32785,-43089 -33065,-43089 -33239,-42935 -33306,-42626 Z"/>
                <path fill="none" stroke="rgb(27,25,24)" stroke-width="200" stroke-linejoin="round" stroke-linecap="square" d="M -29743,-43293 L -29953,-42928 C -30068,-43035 -30222,-43089 -30416,-43089 -30601,-43089 -30748,-43027 -30855,-42903 -30963,-42779 -31017,-42607 -31017,-42388 -31017,-41947 -30807,-41726 -30387,-41726 -30206,-41726 -30046,-41786 -29907,-41907 L -29727,-41521 C -29870,-41432 -29994,-41375 -30101,-41352 -30207,-41328 -30333,-41316 -30478,-41316 -30803,-41316 -31058,-41410 -31246,-41600 -31433,-41789 -31527,-42052 -31527,-42388 -31527,-42719 -31425,-42988 -31219,-43192 -31014,-43397 -30734,-43498 -30380,-43498 -30136,-43498 -29923,-43430 -29743,-43293 Z"/>
              </g>
            </g>
            <g class="com.sun.star.drawing.ClosedBezierShape">
              <g id="id40">
                <rect class="BoundingBox" stroke="none" fill="none" x="1400" y="11400" width="11334" height="4399"/>
                <path fill="rgb(27,25,24)" stroke="none" d="M 2215,14774 L 1500,14774 1500,11551 C 1956,11535 2243,11527 2360,11527 2829,11527 3201,11664 3476,11939 3751,12214 3889,12580 3889,13035 3889,14194 3331,14774 2215,14774 Z M 2215,14774 L 2215,14774 Z M 2072,12052 L 2072,14250 C 2164,14259 2264,14264 2371,14264 2660,14264 2886,14159 3049,13950 3212,13740 3294,13447 3294,13070 3294,12380 2974,12036 2333,12036 2272,12036 2185,12041 2072,12052 Z M 2072,12052 L 2072,12052 Z M 4793,11500 C 4881,11500 4956,11531 5019,11593 5081,11656 5113,11731 5113,11820 5113,11907 5081,11983 5019,12046 4956,12108 4881,12140 4793,12140 4705,12140 4629,12108 4566,12046 4504,11983 4473,11907 4473,11820 4473,11731 4504,11656 4566,11593 4629,11531 4705,11500 4793,11500 Z M 4793,11500 L 4793,11500 Z M 4509,14774 L 4509,12866 4207,12866 4207,12415 5068,12415 5068,14774 4509,14774 Z M 4509,14774 L 4509,14774 Z M 5533,15379 L 5881,14950 C 6074,15127 6288,15216 6524,15216 6683,15216 6814,15192 6917,15145 7020,15097 7072,15032 7072,14949 7072,14809 6957,14738 6730,14738 6667,14738 6576,14746 6454,14761 6332,14776 6240,14783 6178,14783 5799,14783 5610,14646 5610,14374 5610,14297 5642,14220 5704,14145 5767,14070 5840,14015 5923,13980 5654,13806 5520,13560 5520,13241 5520,12990 5612,12782 5798,12617 5983,12451 6211,12370 6482,12370 6693,12370 6871,12409 7014,12488 L 7231,12239 7613,12583 7350,12774 C 7441,12912 7486,13074 7486,13261 7486,13528 7404,13742 7241,13902 7076,14062 6869,14142 6618,14142 6579,14142 6526,14138 6460,14132 L 6369,14120 C 6359,14120 6320,14135 6252,14167 6185,14199 6151,14232 6151,14265 6151,14325 6201,14354 6303,14354 6349,14354 6425,14343 6532,14320 6639,14298 6731,14286 6808,14286 7344,14286 7613,14502 7613,14934 7613,15172 7505,15359 7291,15495 7076,15631 6817,15698 6514,15698 6153,15698 5826,15592 5533,15379 Z M 5533,15379 L 5533,15379 Z M 6083,13242 C 6083,13380 6122,13492 6200,13575 6277,13658 6382,13700 6512,13700 6644,13700 6745,13660 6816,13578 6887,13497 6922,13385 6922,13242 6922,13125 6884,13025 6808,12944 6732,12862 6633,12821 6512,12821 6385,12821 6283,12860 6203,12939 6123,13017 6083,13119 6083,13242 Z M 6083,13242 L 6083,13242 Z M 9488,14774 L 9488,13410 C 9488,13208 9450,13062 9372,12969 9296,12877 9170,12830 8996,12830 8915,12830 8829,12853 8737,12899 8646,12944 8574,13001 8523,13069 L 8523,14774 7973,14774 7973,12415 8369,12415 8470,12636 C 8619,12458 8840,12370 9132,12370 9412,12370 9633,12454 9795,12623 9957,12791 10038,13026 10038,13326 L 10038,14774 9488,14774 Z M 9488,14774 L 9488,14774 Z M 11946,14538 C 11897,14620 11810,14689 11686,14741 11562,14793 11432,14819 11297,14819 11044,14819 10844,14756 10699,14628 10554,14501 10481,14320 10481,14087 10481,13813 10583,13599 10788,13445 10992,13291 11283,13214 11659,13214 11724,13214 11800,13224 11888,13245 11888,12969 11713,12830 11363,12830 11156,12830 10982,12865 10843,12934 L 10725,12505 C 10914,12415 11139,12370 11401,12370 11760,12370 12024,12451 12191,12616 12359,12780 12442,13090 12442,13546 L 12442,14051 C 12442,14365 12505,14562 12632,14643 12586,14724 12535,14773 12480,14792 12424,14810 12360,14819 12288,14819 12209,14819 12137,14790 12074,14731 12011,14672 11968,14607 11946,14538 Z M 11946,14538 L 11946,14538 Z M 11892,13660 C 11798,13642 11728,13633 11681,13633 11248,13633 11031,13776 11031,14063 11031,14275 11154,14381 11398,14381 11728,14381 11892,14214 11892,13881 L 11892,13660 Z"/>
                <path fill="none" stroke="rgb(255,236,0)" stroke-width="200" stroke-linejoin="round" stroke-linecap="square" d="M 2215,14774 L 1500,14774 1500,11551 C 1956,11535 2243,11527 2360,11527 2829,11527 3201,11664 3476,11939 3751,12214 3889,12580 3889,13035 3889,14194 3331,14774 2215,14774 Z"/>
                <path fill="none" stroke="rgb(255,236,0)" stroke-width="200" stroke-linejoin="round" stroke-linecap="square" d="M 2072,12052 L 2072,14250 C 2164,14259 2264,14264 2371,14264 2660,14264 2886,14159 3049,13950 3212,13740 3294,13447 3294,13070 3294,12380 2974,12036 2333,12036 2272,12036 2185,12041 2072,12052 Z"/>
                <path fill="none" stroke="rgb(255,236,0)" stroke-width="200" stroke-linejoin="round" stroke-linecap="square" d="M 4793,11500 C 4881,11500 4956,11531 5019,11593 5081,11656 5113,11731 5113,11820 5113,11907 5081,11983 5019,12046 4956,12108 4881,12140 4793,12140 4705,12140 4629,12108 4566,12046 4504,11983 4473,11907 4473,11820 4473,11731 4504,11656 4566,11593 4629,11531 4705,11500 4793,11500 Z"/>
                <path fill="none" stroke="rgb(255,236,0)" stroke-width="200" stroke-linejoin="round" stroke-linecap="square" d="M 4509,14774 L 4509,12866 4207,12866 4207,12415 5068,12415 5068,14774 4509,14774 Z"/>
                <path fill="none" stroke="rgb(255,236,0)" stroke-width="200" stroke-linejoin="round" stroke-linecap="square" d="M 5533,15379 L 5881,14950 C 6074,15127 6288,15216 6524,15216 6683,15216 6814,15192 6917,15145 7020,15097 7072,15032 7072,14949 7072,14809 6957,14738 6730,14738 6667,14738 6576,14746 6454,14761 6332,14776 6240,14783 6178,14783 5799,14783 5610,14646 5610,14374 5610,14297 5642,14220 5704,14145 5767,14070 5840,14015 5923,13980 5654,13806 5520,13560 5520,13241 5520,12990 5612,12782 5798,12617 5983,12451 6211,12370 6482,12370 6693,12370 6871,12409 7014,12488 L 7231,12239 7613,12583 7350,12774 C 7441,12912 7486,13074 7486,13261 7486,13528 7404,13742 7241,13902 7076,14062 6869,14142 6618,14142 6579,14142 6526,14138 6460,14132 L 6369,14120 C 6359,14120 6320,14135 6252,14167 6185,14199 6151,14232 6151,14265 6151,14325 6201,14354 6303,14354 6349,14354 6425,14343 6532,14320 6639,14298 6731,14286 6808,14286 7344,14286 7613,14502 7613,14934 7613,15172 7505,15359 7291,15495 7076,15631 6817,15698 6514,15698 6153,15698 5826,15592 5533,15379 Z"/>
                <path fill="none" stroke="rgb(255,236,0)" stroke-width="200" stroke-linejoin="round" stroke-linecap="square" d="M 6083,13242 C 6083,13380 6122,13492 6200,13575 6277,13658 6382,13700 6512,13700 6644,13700 6745,13660 6816,13578 6887,13497 6922,13385 6922,13242 6922,13125 6884,13025 6808,12944 6732,12862 6633,12821 6512,12821 6385,12821 6283,12860 6203,12939 6123,13017 6083,13119 6083,13242 Z"/>
                <path fill="none" stroke="rgb(255,236,0)" stroke-width="200" stroke-linejoin="round" stroke-linecap="square" d="M 9488,14774 L 9488,13410 C 9488,13208 9450,13062 9372,12969 9296,12877 9170,12830 8996,12830 8915,12830 8829,12853 8737,12899 8646,12944 8574,13001 8523,13069 L 8523,14774 7973,14774 7973,12415 8369,12415 8470,12636 C 8619,12458 8840,12370 9132,12370 9412,12370 9633,12454 9795,12623 9957,12791 10038,13026 10038,13326 L 10038,14774 9488,14774 Z"/>
                <path fill="none" stroke="rgb(255,236,0)" stroke-width="200" stroke-linejoin="round" stroke-linecap="square" d="M 11946,14538 C 11897,14620 11810,14689 11686,14741 11562,14793 11432,14819 11297,14819 11044,14819 10844,14756 10699,14628 10554,14501 10481,14320 10481,14087 10481,13813 10583,13599 10788,13445 10992,13291 11283,13214 11659,13214 11724,13214 11800,13224 11888,13245 11888,12969 11713,12830 11363,12830 11156,12830 10982,12865 10843,12934 L 10725,12505 C 10914,12415 11139,12370 11401,12370 11760,12370 12024,12451 12191,12616 12359,12780 12442,13090 12442,13546 L 12442,14051 C 12442,14365 12505,14562 12632,14643 12586,14724 12535,14773 12480,14792 12424,14810 12360,14819 12288,14819 12209,14819 12137,14790 12074,14731 12011,14672 11968,14607 11946,14538 Z"/>
                <path fill="none" stroke="rgb(255,236,0)" stroke-width="200" stroke-linejoin="round" stroke-linecap="square" d="M 11892,13660 C 11798,13642 11728,13633 11681,13633 11248,13633 11031,13776 11031,14063 11031,14275 11154,14381 11398,14381 11728,14381 11892,14214 11892,13881 L 11892,13660 Z"/>
              </g>
            </g>
            <g class="com.sun.star.drawing.ClosedBezierShape">
              <g id="id41">
                <rect class="BoundingBox" stroke="none" fill="none" x="13462" y="11760" width="6416" height="3114"/>
                <path fill="rgb(255,236,0)" stroke="none" d="M 14989,12313 L 14989,14733 14478,14733 14478,12313 13563,12313 13563,11860 15945,11860 15945,12313 14989,12313 Z M 14989,12313 L 14989,12313 Z M 17680,13833 L 16178,13833 C 16187,14000 16245,14131 16350,14224 16456,14317 16599,14363 16779,14363 17004,14363 17174,14306 17290,14190 L 17480,14564 C 17307,14703 17050,14773 16708,14773 16387,14773 16133,14679 15947,14491 15761,14304 15667,14041 15667,13705 15667,13374 15770,13104 15974,12899 16179,12693 16424,12591 16712,12591 17016,12591 17261,12682 17445,12864 17629,13046 17721,13278 17721,13560 17721,13620 17707,13711 17680,13833 Z M 17680,13833 L 17680,13833 Z M 16198,13463 L 17227,13463 C 17193,13154 17024,13000 16719,13000 16439,13000 16265,13154 16198,13463 Z M 16198,13463 L 16198,13463 Z M 19761,12796 L 19551,13161 C 19436,13054 19282,13000 19088,13000 18903,13000 18756,13062 18649,13186 18541,13310 18487,13482 18487,13701 18487,14142 18697,14363 19117,14363 19298,14363 19458,14303 19597,14182 L 19777,14568 C 19634,14657 19510,14714 19403,14737 19297,14761 19171,14773 19026,14773 18701,14773 18446,14679 18258,14489 18071,14300 17977,14037 17977,13701 17977,13370 18079,13101 18285,12897 18490,12692 18770,12591 19124,12591 19368,12591 19581,12659 19761,12796 Z"/>
                <path fill="none" stroke="rgb(27,25,24)" stroke-width="200" stroke-linejoin="round" stroke-linecap="square" d="M 14989,12313 L 14989,14733 14478,14733 14478,12313 13563,12313 13563,11860 15945,11860 15945,12313 14989,12313 Z"/>
                <path fill="none" stroke="rgb(27,25,24)" stroke-width="200" stroke-linejoin="round" stroke-linecap="square" d="M 17680,13833 L 16178,13833 C 16187,14000 16245,14131 16350,14224 16456,14317 16599,14363 16779,14363 17004,14363 17174,14306 17290,14190 L 17480,14564 C 17307,14703 17050,14773 16708,14773 16387,14773 16133,14679 15947,14491 15761,14304 15667,14041 15667,13705 15667,13374 15770,13104 15974,12899 16179,12693 16424,12591 16712,12591 17016,12591 17261,12682 17445,12864 17629,13046 17721,13278 17721,13560 17721,13620 17707,13711 17680,13833 Z"/>
                <path fill="none" stroke="rgb(27,25,24)" stroke-width="200" stroke-linejoin="round" stroke-linecap="square" d="M 16198,13463 L 17227,13463 C 17193,13154 17024,13000 16719,13000 16439,13000 16265,13154 16198,13463 Z"/>
                <path fill="none" stroke="rgb(27,25,24)" stroke-width="200" stroke-linejoin="round" stroke-linecap="square" d="M 19761,12796 L 19551,13161 C 19436,13054 19282,13000 19088,13000 18903,13000 18756,13062 18649,13186 18541,13310 18487,13482 18487,13701 18487,14142 18697,14363 19117,14363 19298,14363 19458,14303 19597,14182 L 19777,14568 C 19634,14657 19510,14714 19403,14737 19297,14761 19171,14773 19026,14773 18701,14773 18446,14679 18258,14489 18071,14300 17977,14037 17977,13701 17977,13370 18079,13101 18285,12897 18490,12692 18770,12591 19124,12591 19368,12591 19581,12659 19761,12796 Z"/>
              </g>
            </g>
          </g>
        </g>
      </g>
    </g>
  </g>
</svg>